<?xml version="1.0" encoding="UTF-8"?>
<svg version="1.1" xmlns="http://www.w3.org/2000/svg" width="500" height="500">
<path d="M0 0 C0.99 0.495 0.99 0.495 2 1 C3.41973273 1.08934406 4.84357791 1.11758978 6.26611328 1.11352539 C7.14687531 1.11344986 8.02763733 1.11337433 8.93508911 1.11329651 C9.88721283 1.10813522 10.83933655 1.10297394 11.8203125 1.09765625 C12.79410858 1.0962413 13.76790466 1.09482635 14.77120972 1.09336853 C17.88917073 1.08775973 21.0070606 1.07520573 24.125 1.0625 C26.23567605 1.05748613 28.34635322 1.05292303 30.45703125 1.04882812 C35.63804521 1.03778745 40.81901752 1.02104073 46 1 C46 5.64534625 43.78137549 8.15240624 40.6953125 11.5 C39.42300781 12.7375 39.42300781 12.7375 38.125 14 C36.86042969 15.2375 36.86042969 15.2375 35.5703125 16.5 C34.72210938 17.325 33.87390625 18.15 33 19 C30.67220121 21.31726576 28.35246548 23.64117742 26.05078125 25.984375 C25.47714844 26.56703125 24.90351563 27.1496875 24.3125 27.75 C23.44044922 28.63945313 23.44044922 28.63945313 22.55078125 29.546875 C19.08747045 32.79209318 15.02376564 32.34219409 10.52531433 32.55540466 C9.67327933 32.59755897 8.82124432 32.63971328 7.94339007 32.68314499 C-0.84110553 33.08711088 -9.61301865 33.13395318 -18.4050293 33.11352539 C-20.151652 33.11324229 -21.89827482 33.11340365 -23.64489746 33.1139679 C-28.31925387 33.11425107 -32.99358384 33.10843313 -37.66793418 33.10139394 C-42.57792252 33.09507934 -47.48791167 33.09455026 -52.39790344 33.09336853 C-61.66563508 33.09027885 -70.93335471 33.0820978 -80.2010811 33.07201904 C-90.76480154 33.06078389 -101.32852261 33.05532892 -111.89224756 33.05032361 C-133.59483837 33.03991282 -155.29741842 33.02235986 -177 33 C-176.96161827 45.73716736 -176.90179511 58.47404818 -176.81609726 71.21098995 C-176.7769272 77.12805577 -176.74459173 83.04497954 -176.72900391 88.9621582 C-176.71363351 94.6941902 -176.67883844 100.42583078 -176.63169098 106.15768623 C-176.6170839 108.32240926 -176.60897119 110.48718823 -176.60811615 112.65196037 C-176.56303971 169.65986946 -155.19397718 224.915264 -118 268 C-117.33097656 268.77988281 -116.66195312 269.55976563 -115.97265625 270.36328125 C-105.03174024 282.81188401 -93.36719455 294.19616992 -80 304 C-79.04818848 304.70310303 -79.04818848 304.70310303 -78.07714844 305.42041016 C-76.16167407 306.83053142 -74.23958978 308.2308016 -72.3125 309.625 C-71.7239624 310.05143799 -71.1354248 310.47787598 -70.52905273 310.91723633 C-68.02356203 312.69858404 -65.93656339 314.02114554 -63 315 C-60.53344299 313.45840187 -58.29658207 311.89208517 -56 310.125 C-55.32864014 309.61904297 -54.65728027 309.11308594 -53.96557617 308.59179688 C-26.69779143 287.91418736 -3.20558264 263.74199229 14 234 C14.39574219 233.32066406 14.79148437 232.64132812 15.19921875 231.94140625 C31.25964845 204.21863376 41.36389848 174.56684012 47.10546875 143.09765625 C47.26128418 142.28143799 47.41709961 141.46521973 47.57763672 140.62426758 C48.04830592 137.94019651 48.04830592 137.94019651 48.22314453 134.9597168 C48.95779856 127.1974374 48.95779856 127.1974374 51.87182617 123.84936523 C54.32692973 121.92701379 56.82714667 120.29237075 59.5 118.6875 C60.36109375 118.13255859 61.2221875 117.57761719 62.109375 117.00585938 C63.84355286 115.88824924 65.58710864 114.78505345 67.33984375 113.69677734 C70.98982295 111.36864267 74.48611671 108.84228881 77.98632812 106.29614258 C80 105 80 105 82 105 C83.03886685 137.28182553 76.76651532 169.63704353 66 200 C65.70931641 200.84369141 65.41863281 201.68738281 65.11914062 202.55664062 C57.74825111 223.82320264 47.70469721 244.39891395 35 263 C34.39575195 263.88703613 34.39575195 263.88703613 33.77929688 264.79199219 C30.93897712 268.92643545 28.00161291 272.98143469 25 277 C24.57638184 277.56928223 24.15276367 278.13856445 23.71630859 278.72509766 C16.44427664 288.42569838 8.41388155 297.28218534 0 306 C-0.89976562 306.94101562 -1.79953125 307.88203125 -2.7265625 308.8515625 C-7.61140952 313.86046913 -12.72410057 318.39174665 -18.19921875 322.74609375 C-20.00484923 324.1991604 -21.78147951 325.6893982 -23.51953125 327.22265625 C-33.15658943 335.67448326 -43.93228018 342.46924877 -54.64672852 349.46289062 C-56.43735218 350.63248981 -58.22044391 351.81362927 -60 353 C-64.41893972 353.88647423 -66.94628713 352.65276298 -70.6171875 350.359375 C-72.38035685 349.17178712 -74.13246267 347.96765956 -75.875 346.75 C-76.80248047 346.11537842 -77.72996094 345.48075684 -78.68554688 344.8269043 C-101.34690695 329.20920337 -125.02890079 311.45894949 -142.3125 289.8125 C-144.62976558 286.92374662 -146.95033767 284.05734039 -149.375 281.2578125 C-164.64994719 263.58391527 -175.99126918 243.00618284 -186 222 C-186.50015625 220.95457031 -187.0003125 219.90914062 -187.515625 218.83203125 C-195.14205374 201.96589077 -200.66155951 184.09504478 -204.4375 166 C-204.67210937 164.88165771 -204.90671875 163.76331543 -205.1484375 162.61108398 C-208.94460163 143.28349832 -209.28374263 124.15984964 -209.20256042 104.53026581 C-209.19098011 101.26769966 -209.19062404 98.00513789 -209.18920898 94.74255371 C-209.17880692 85.26585068 -209.15088473 75.78917339 -209.125 66.3125 C-209.08375 45.089375 -209.0425 23.86625 -209 2 C-140.03 2 -71.06 2 0 2 C0 1.34 0 0.68 0 0 Z " fill="#0267B0" transform="translate(315,94)"/>
<path d="M0 0 C0.65351724 -0.00155999 1.30703447 -0.00311998 1.98035526 -0.00472724 C4.18606333 -0.00873896 6.39170344 -0.00554696 8.59741211 -0.00241089 C10.17227214 -0.00376485 11.74713186 -0.00554476 13.32199097 -0.00772095 C17.61112615 -0.01229585 21.90023739 -0.01050549 26.18937302 -0.00734186 C30.66791602 -0.00481855 35.14645692 -0.00715572 39.625 -0.00872803 C47.14738332 -0.01054981 54.66975684 -0.00814319 62.19213867 -0.00338745 C70.90186251 0.00205519 79.61156294 0.00029253 88.3212862 -0.00521386 C95.78538114 -0.00974474 103.24946901 -0.01039565 110.71356487 -0.00777519 C115.17762829 -0.00621228 119.64168069 -0.00601902 124.10574341 -0.00931168 C128.30157701 -0.01219004 132.49738029 -0.01021535 136.6932106 -0.00441742 C138.23762079 -0.00308963 139.78203352 -0.00348425 141.32644272 -0.00568008 C143.42583408 -0.00839088 145.52512674 -0.00501138 147.62451172 0 C149.39102333 0.00056554 149.39102333 0.00056554 151.19322205 0.0011425 C153.81225586 0.12698364 153.81225586 0.12698364 154.81225586 1.12698364 C154.90724232 3.56094383 154.93784003 5.96641317 154.92578125 8.40066528 C154.92592728 9.16158981 154.9260733 9.92251434 154.92622375 10.70649719 C154.92552448 13.23340663 154.91773141 15.76024326 154.90991211 18.28713989 C154.90804798 20.03448954 154.90662405 21.78183971 154.90562439 23.52919006 C154.90179879 28.13730299 154.89196815 32.74538459 154.88092041 37.35348511 C154.8707072 42.05206885 154.86612696 46.75065763 154.86108398 51.44924927 C154.85034591 60.67517452 154.83326899 69.90107648 154.81225586 79.12698364 C152.59539832 80.24088143 150.3779507 81.35357707 148.16015625 82.46560669 C147.53906227 82.77783928 146.91796829 83.09007187 146.27805328 83.41176605 C140.99531817 86.05871423 135.64983956 88.54087164 130.24975586 90.93948364 C128.97648437 91.5108606 128.97648437 91.5108606 127.67749023 92.09378052 C123.75092819 93.8495103 119.82541373 95.57588582 115.81225586 97.12698364 C118.04024452 97.8391837 120.26955434 98.54676489 122.49975586 99.25198364 C123.19858887 99.47499146 123.89742187 99.69799927 124.61743164 99.92776489 C128.88032783 101.26994225 133.15377075 102.49741646 137.48022461 103.61917114 C138.42744385 103.8703772 139.37466309 104.12158325 140.35058594 104.38040161 C142.22232423 104.87302367 144.09853181 105.34900505 145.97900391 105.80715942 C152.3939197 107.51708266 152.3939197 107.51708266 154.39038086 110.42776489 C158.40337006 136.10346432 146.05503717 160.31068998 131.40600586 180.45901489 C125.70520372 188.14369164 119.43001048 195.22617519 112.81225586 202.12698364 C112.30823242 202.65823853 111.80420898 203.18949341 111.28491211 203.73684692 C103.86984493 211.51943146 96.09505081 218.44448056 87.48022461 224.87356567 C85.84454937 226.10271624 84.2334411 227.35889551 82.62475586 228.62307739 C81.65538086 229.36686646 80.68600586 230.11065552 79.68725586 230.87698364 C78.41495117 231.85924927 78.41495117 231.85924927 77.11694336 232.86135864 C74.81225586 234.12698364 74.81225586 234.12698364 72.87475586 234.09963989 C69.90518267 232.69921617 67.52394423 230.836745 64.93725586 228.81448364 C64.3771582 228.37733032 63.81706055 227.940177 63.23999023 227.48977661 C57.65554835 223.08808613 52.26984566 218.45706753 46.90600586 213.79104614 C44.26419548 211.496329 41.54857067 209.30838147 38.81225586 207.12698364 C37.09866943 205.50859645 35.44148326 203.83026683 33.81225586 202.12698364 C33.18706055 201.47342896 32.56186523 200.81987427 31.91772461 200.14651489 C13.35496753 180.17900863 -7.3032892 152.1313005 -7.31472778 123.67306519 C-7.31754761 122.59062531 -7.32036743 121.50818542 -7.32327271 120.39294434 C-7.32124847 119.21559723 -7.31922424 118.03825012 -7.31713867 116.82522583 C-7.31889099 115.57764496 -7.32064331 114.33006409 -7.32244873 113.04467773 C-7.32609161 109.631771 -7.32524407 106.218925 -7.32206964 102.80602169 C-7.31953565 99.23505001 -7.32188628 95.66408091 -7.32345581 92.09310913 C-7.32527352 86.10114069 -7.32288065 80.10918459 -7.31811523 74.11721802 C-7.31266345 67.181957 -7.31444351 60.24672534 -7.31994164 53.31146502 C-7.32447229 47.35895369 -7.32512386 41.40645122 -7.32250297 35.45393872 C-7.32094121 31.89760942 -7.3207439 28.34129394 -7.32403946 24.78496552 C-7.32745136 20.82701973 -7.32272931 16.86910716 -7.31713867 12.91116333 C-7.3191629 11.7257193 -7.32118713 10.54027527 -7.32327271 9.31890869 C-7.31904297 7.71216782 -7.31904297 7.71216782 -7.31472778 6.07296753 C-7.31435076 5.1364674 -7.31397373 4.19996727 -7.31358528 3.23508835 C-7.04793729 -1.21507613 -3.74472979 0.00119885 0 0 Z M23.81225586 29.12698364 C23.58538086 44.47198364 23.35850586 59.81698364 23.12475586 75.62698364 C23.04523682 80.44098755 22.96571777 85.25499146 22.88378906 90.21487427 C22.82706265 94.59613499 22.82706265 94.59613499 22.77458191 98.97744751 C22.74950636 100.90266344 22.71821549 102.82780546 22.6816864 104.75283813 C22.14424039 133.74040108 29.50137098 156.79301138 49.69116211 178.11087036 C51.88192997 180.38283381 54.09166981 182.63416304 56.31225586 184.87698364 C57.02446289 185.59861694 57.73666992 186.32025024 58.47045898 187.06375122 C62.96777852 191.53366069 67.6284179 195.4745756 72.81225586 199.12698364 C94.19261888 188.81086005 112.62443966 163.88306968 120.97241211 142.09963989 C122.20380294 138.19928103 122.81225586 135.25766602 122.81225586 131.12698364 C116.61977761 129.14973479 110.42668238 127.17442785 104.2331543 125.20046997 C102.12624075 124.52871689 100.01946887 123.85651933 97.9128418 123.18386841 C94.88489314 122.21712231 91.85643871 121.25197559 88.82788086 120.28713989 C87.88607971 119.98606827 86.94427856 119.68499664 85.97393799 119.37480164 C85.09332703 119.09458664 84.21271606 118.81437164 83.30541992 118.52566528 C82.14626068 118.15593346 82.14626068 118.15593346 80.96368408 117.7787323 C78.93176431 117.16318726 76.87197455 116.64191331 74.81225586 116.12698364 C75.14225586 104.24698364 75.47225586 92.36698364 75.81225586 80.12698364 C92.99096027 72.11025492 92.99096027 72.11025492 99.24194336 69.41604614 C100.64689436 68.80537616 102.0518422 68.1946989 103.45678711 67.58401489 C105.60055843 66.65516341 107.74468424 65.72713494 109.88891602 64.79934692 C112.00743444 63.88184117 114.12473103 62.96156085 116.24194336 62.04104614 C117.21355911 61.62237778 117.21355911 61.62237778 118.20480347 61.19525146 C121.2281952 60.0099701 121.2281952 60.0099701 123.81225586 58.12698364 C123.81225586 48.55698364 123.81225586 38.98698364 123.81225586 29.12698364 C90.81225586 29.12698364 57.81225586 29.12698364 23.81225586 29.12698364 Z " fill="#F9A51B" transform="translate(176.187744140625,150.87301635742188)"/>
<path d="M0 0 C0.32511503 11.95216381 0.57349377 23.90326806 0.72537041 35.85896111 C0.79828712 41.4114744 0.89707645 46.96095261 1.05615234 52.51171875 C1.20886175 57.87421302 1.29209187 63.2337995 1.3282814 68.59830093 C1.35404962 70.6391593 1.40437874 72.67986716 1.48022079 74.71947861 C2.03434406 90.24636408 2.03434406 90.24636408 -1.33821869 94.81137848 C-4.56855173 97.91937864 -8.2010646 100.08115108 -12.19405746 102.07226944 C-15.06370065 103.54643355 -17.68757463 105.34276323 -20.375 107.125 C-21.91408117 108.08748015 -23.45467581 109.0475757 -25 110 C-26 109 -26 109 -26.12025452 106.18431091 C-26.1169236 104.29568077 -26.1169236 104.29568077 -26.11352539 102.36889648 C-26.11367142 101.67624695 -26.11381744 100.98359741 -26.1139679 100.2699585 C-26.11326874 97.97030554 -26.10547628 95.67073263 -26.09765625 93.37109375 C-26.09579208 91.78068588 -26.09436817 90.19027743 -26.09336853 88.59986877 C-26.08954329 84.4060407 -26.07971295 80.21224705 -26.06866455 76.01843262 C-26.05845057 71.74211086 -26.05387094 67.46578356 -26.04882812 63.18945312 C-26.03809069 54.79295292 -26.02101419 46.39648074 -26 38 C-27.09441406 38.44988281 -28.18882812 38.89976562 -29.31640625 39.36328125 C-29.93201416 39.61634033 -30.54762207 39.86939941 -31.18188477 40.13012695 C-33.78069404 41.37352127 -35.84635581 43.10740359 -38 45 C-41.96160067 43.45334769 -43.98168181 40.95407549 -46.625 37.6875 C-47.40101563 36.74261719 -48.17703125 35.79773438 -48.9765625 34.82421875 C-50.84324641 32.21878928 -51.88243094 29.97258377 -53 27 C-49.72110179 23.06625211 -46.35599932 19.23667125 -42.89257812 15.46435547 C-41.73478841 14.1776737 -40.60154675 12.8683706 -39.49707031 11.53564453 C-28.26491677 -1.94905523 -16.7908025 -1.67566685 0 0 Z " fill="#EB2124" transform="translate(397,96)"/>
<path d="M0 0 C0.65351724 -0.00155999 1.30703447 -0.00311998 1.98035526 -0.00472724 C4.18606333 -0.00873896 6.39170344 -0.00554696 8.59741211 -0.00241089 C10.17227214 -0.00376485 11.74713186 -0.00554476 13.32199097 -0.00772095 C17.61112615 -0.01229585 21.90023739 -0.01050549 26.18937302 -0.00734186 C30.66791602 -0.00481855 35.14645692 -0.00715572 39.625 -0.00872803 C47.14738332 -0.01054981 54.66975684 -0.00814319 62.19213867 -0.00338745 C70.90186251 0.00205519 79.61156294 0.00029253 88.3212862 -0.00521386 C95.78538114 -0.00974474 103.24946901 -0.01039565 110.71356487 -0.00777519 C115.17762829 -0.00621228 119.64168069 -0.00601902 124.10574341 -0.00931168 C128.30157701 -0.01219004 132.49738029 -0.01021535 136.6932106 -0.00441742 C138.23762079 -0.00308963 139.78203352 -0.00348425 141.32644272 -0.00568008 C143.42583408 -0.00839088 145.52512674 -0.00501138 147.62451172 0 C149.39102333 0.00056554 149.39102333 0.00056554 151.19322205 0.0011425 C153.81225586 0.12698364 153.81225586 0.12698364 154.81225586 1.12698364 C154.90722294 3.5304665 154.93784447 5.90509346 154.92578125 8.30886841 C154.92592728 9.06003937 154.9260733 9.81121033 154.92622375 10.58514404 C154.92552449 13.07958823 154.9177315 15.57395867 154.90991211 18.06838989 C154.90804798 19.79331929 154.90662405 21.51824921 154.90562439 23.24317932 C154.90179883 27.79210868 154.89196823 32.34100631 154.88092041 36.8899231 C154.8707071 41.5281837 154.86612694 46.16644942 154.86108398 50.80471802 C154.850346 59.91215386 154.83326913 69.01956612 154.81225586 78.12698364 C154.48225586 78.12698364 154.15225586 78.12698364 153.81225586 78.12698364 C153.48225586 53.37698364 153.15225586 28.62698364 152.81225586 3.12698364 C150.04664914 1.74418028 147.8214606 2.00421193 144.72531128 2.00672913 C143.42678223 2.00535446 142.12825317 2.0039798 140.79037476 2.00256348 C139.34307838 2.00610287 137.89578224 2.00973768 136.44848633 2.01345825 C134.93096926 2.01374019 133.41345205 2.01358225 131.89593506 2.01301575 C127.76807409 2.01272805 123.64024199 2.01862038 119.51238775 2.0255897 C115.20154815 2.03182777 110.89070793 2.0324274 106.5798645 2.03361511 C98.41300264 2.03672709 90.24615412 2.04493868 82.07929814 2.0549646 C72.78317894 2.06612988 63.48705912 2.07163724 54.1909349 2.07666004 C35.06470098 2.0871214 15.93847949 2.10471827 -3.18774414 2.12698364 C-4.44493423 4.64136382 -4.31639376 6.35818771 -4.32145691 9.17303467 C-4.32572189 10.24123444 -4.32998688 11.3094342 -4.3343811 12.41000366 C-4.33392792 13.58713928 -4.33347473 14.7642749 -4.33300781 15.9770813 C-4.33636642 17.21298004 -4.33972504 18.44887878 -4.34318542 19.722229 C-4.35107545 23.11925232 -4.35436416 26.51621452 -4.35500121 29.91324282 C-4.35571154 32.03700682 -4.35784562 34.16076441 -4.36049843 36.28452682 C-4.36975881 43.69832516 -4.37383283 51.1121055 -4.37304688 58.52590942 C-4.37244727 65.42747711 -4.38297413 72.32896632 -4.39879054 79.23051417 C-4.4118933 85.16014587 -4.41722956 91.08975204 -4.41659147 97.01939809 C-4.41633709 100.55869194 -4.41915393 104.09791621 -4.42976952 107.63719559 C-4.44130527 111.59166736 -4.43668693 115.54603297 -4.43066406 119.5005188 C-4.43628357 120.66550903 -4.44190308 121.83049927 -4.44769287 123.03079224 C-4.42945147 127.74986251 -4.36053117 132.09738331 -3.11006165 136.6661377 C-2.21209288 140.03561898 -2.20539304 140.98481015 -3.18774414 144.12698364 C-8.44201782 130.40153022 -7.73078612 116.26986137 -7.62625146 101.79208231 C-7.60472003 98.24788214 -7.60554138 94.70367899 -7.6035614 91.15942383 C-7.59715385 85.22712629 -7.5760422 79.29503802 -7.54443359 73.36282349 C-7.50387978 65.74164079 -7.48670064 58.12059283 -7.47712421 50.49931526 C-7.46884286 43.9340151 -7.4516208 37.3687435 -7.43208671 30.80346823 C-7.42803643 29.39608898 -7.42429708 27.9887088 -7.42086434 26.58132792 C-7.40961634 21.97165553 -7.38948316 17.36209626 -7.36474609 12.75247192 C-7.36205719 11.58273834 -7.35936829 10.41300476 -7.3565979 9.20782471 C-7.3494426 8.15111572 -7.34228729 7.09440674 -7.33491516 6.00567627 C-7.33064168 5.08216433 -7.3263682 4.15865238 -7.32196522 3.20715523 C-7.03673283 -1.2134046 -3.7166058 0.00118985 0 0 Z " fill="#E7AB44" transform="translate(176.187744140625,150.87301635742188)"/>
<path d="M0 0 C68.97 0 137.94 0 209 0 C209 0.33 209 0.66 209 1 C107.03 1.495 107.03 1.495 3 2 C3 27.74 3 53.48 3 80 C2.41964286 114.67633929 2.41964286 114.67633929 2 130 C1.34 130 0.68 130 0 130 C0 87.1 0 44.2 0 0 Z " fill="#0E629E" transform="translate(106,96)"/>
<path d="M0 0 C0.33 0 0.66 0 1 0 C0.99333817 1.14210937 0.98667633 2.28421875 0.97981262 3.4609375 C0.91868249 14.28700529 0.87387539 25.11303752 0.84456348 35.9392395 C0.82898678 41.50351217 0.80789658 47.06764418 0.77368164 52.63183594 C0.74080053 58.01352294 0.72308707 63.39507567 0.71536827 68.77685547 C0.7098759 70.81789256 0.69915264 72.85892329 0.68280983 74.89990234 C0.5897605 87.01537698 1.26071768 98.17341431 4 110 C4.33873207 111.66557782 4.67434596 113.33181586 5 115 C2.34831923 113.67415962 1.76442277 111.91355745 0.66015625 109.25 C-0.39925587 105.63922261 -0.57486519 102.00116544 -0.7890625 98.2578125 C-0.75468067 96.03256418 -0.75468067 96.03256418 -2 95 C-2.08881673 91.95260797 -2.11253684 88.93006793 -2.08984375 85.8828125 C-2.08605209 84.94325714 -2.08226044 84.00370178 -2.07835388 83.03567505 C-2.01900935 72.31343118 -1.80310746 61.59445072 -1.5625 50.875 C-1.52940231 49.34974197 -1.52940231 49.34974197 -1.49563599 47.79367065 C-1.1489469 31.85582438 -0.69793408 15.92681083 0 0 Z " fill="#E3A745" transform="translate(199,181)"/>
<path d="M0 0 C1.13390339 3.40171016 0.84013988 4.59794868 0.03125 8.0234375 C-0.20650146 9.0340625 -0.44425293 10.0446875 -0.68920898 11.0859375 C-0.95677002 12.17132813 -1.22433105 13.25671875 -1.5 14.375 C-1.91004272 16.05335938 -1.91004272 16.05335938 -2.32836914 17.765625 C-6.49222578 34.3880705 -12.22117837 50.27890303 -19 66 C-19.33 66 -19.66 66 -20 66 C-20.33 62.37 -20.66 58.74 -21 55 C-19.515 54.505 -19.515 54.505 -18 54 C-17.34 54.33 -16.68 54.66 -16 55 C-16.04125 54.071875 -16.0825 53.14375 -16.125 52.1875 C-16 49 -16 49 -14 46 C-14 44.989375 -14 43.97875 -14 42.9375 C-14 40 -14 40 -12 38 C-11.29289322 36.35008418 -10.63437344 34.6792238 -10 33 C-9.50757813 31.97132813 -9.01515625 30.94265625 -8.5078125 29.8828125 C-6.70289371 25.69186034 -6.23394122 21.57462753 -5.8125 17.0625 C-5.73064453 16.28326172 -5.64878906 15.50402344 -5.56445312 14.70117188 C-5.36635829 12.80179203 -5.18176159 10.90101238 -5 9 C-4.34 9 -3.68 9 -3 9 C-2.01 6.03 -1.02 3.06 0 0 Z " fill="#13639B" transform="translate(391,251)"/>
<path d="M0 0 C1.98 0 3.96 0 6 0 C4 2 4 2 1 3 C3.22798866 3.71220005 5.45729848 4.41978125 7.6875 5.125 C8.38633301 5.34800781 9.08516602 5.57101563 9.80517578 5.80078125 C14.06807197 7.14295861 18.34151489 8.37043281 22.66796875 9.4921875 C23.61518799 9.74339355 24.56240723 9.99459961 25.53833008 10.25341797 C27.41006837 10.74604003 29.28627595 11.22202141 31.16674805 11.68017578 C37.57687762 13.38882323 37.57687762 13.38882323 39.58203125 16.28515625 C41.21585685 26.89738793 39.62620942 36.71401309 37 47 C36.67 47 36.34 47 36 47 C35.97311849 45.35425434 35.95365877 43.70838587 35.9375 42.0625 C35.92589844 41.14597656 35.91429687 40.22945313 35.90234375 39.28515625 C36 37 36 37 37 36 C37.15655027 34.51361008 37.25066943 33.02050873 37.31640625 31.52734375 C37.37924805 30.17866211 37.37924805 30.17866211 37.44335938 28.80273438 C37.48267578 27.85720703 37.52199219 26.91167969 37.5625 25.9375 C37.62727539 24.5134082 37.62727539 24.5134082 37.69335938 23.06054688 C37.79979276 20.70718647 37.90181008 18.35371646 38 16 C34.04 16.495 34.04 16.495 30 17 C29.505 16.01 29.505 16.01 29 15 C28.05125 14.855625 27.1025 14.71125 26.125 14.5625 C23 14 23 14 21.61010742 12.55151367 C19.54062182 10.55733914 17.90352636 10.23897258 15.11328125 9.61328125 C14.17548828 9.39736328 13.23769531 9.18144531 12.27148438 8.95898438 C11.29501953 8.74564453 10.31855469 8.53230469 9.3125 8.3125 C8.32443359 8.08755859 7.33636719 7.86261719 6.31835938 7.63085938 C3.88093651 7.07743486 1.44168502 6.5342474 -1 6 C-1 5.34 -1 4.68 -1 4 C-1.66 3.67 -2.32 3.34 -3 3 C-2.01 2.67 -1.02 2.34 0 2 C0 1.34 0 0.68 0 0 Z " fill="#E6AA46" transform="translate(291,245)"/>
<path d="M0 0 C0 0.66 0 1.32 0 2 C-3.1635377 4.169283 -6.4124787 5.66749209 -10 7 C-9.01 7.33 -8.02 7.66 -7 8 C-7.6875 9.9375 -7.6875 9.9375 -9 12 C-11.625 12.75 -11.625 12.75 -14 13 C-14.33 13.99 -14.66 14.98 -15 16 C-15.66 16 -16.32 16 -17 16 C-16.67 14.02 -16.34 12.04 -16 10 C-16.99 10 -17.98 10 -19 10 C-18.84402344 10.59941406 -18.68804687 11.19882813 -18.52734375 11.81640625 C-16.16428077 22.81795112 -17.28317766 33.85383766 -18 45 C-18.66 45 -19.32 45 -20 45 C-20.12355727 39.92806922 -20.21431615 34.85701304 -20.2746582 29.78393555 C-20.29981005 28.05819441 -20.33393619 26.33255988 -20.37719727 24.60717773 C-20.43782433 22.12717419 -20.46620101 19.64857778 -20.48828125 17.16796875 C-20.51408768 16.39599655 -20.5398941 15.62402435 -20.56648254 14.82865906 C-20.56762695 12.64526367 -20.56762695 12.64526367 -20 9 C-17.67333984 7.08984375 -17.67333984 7.08984375 -15 6 C-13.92363281 5.47019531 -12.84726562 4.94039062 -11.73828125 4.39453125 C-10.60777344 3.87246094 -9.47726562 3.35039062 -8.3125 2.8125 C-7.17425781 2.28269531 -6.03601563 1.75289062 -4.86328125 1.20703125 C-2 0 -2 0 0 0 Z " fill="#ECAB32" transform="translate(271,222)"/>
<path d="M0 0 C0.33 0 0.66 0 1 0 C1 21.78 1 43.56 1 66 C4.465 65.01 4.465 65.01 8 64 C5.63379989 66.61527381 3.057952 68.26440562 0 70 C-1.78077585 68.21922415 -1.12765143 65.60604617 -1.12939453 63.19848633 C-1.13254669 61.95662064 -1.13569885 60.71475494 -1.13894653 59.43525696 C-1.13715577 58.0675147 -1.13510458 56.69977276 -1.1328125 55.33203125 C-1.13348593 53.93535851 -1.13445628 52.53868589 -1.13571167 51.14201355 C-1.13718924 48.20721324 -1.13503385 45.27244328 -1.13037109 42.33764648 C-1.12470004 38.58624481 -1.12793568 34.8349151 -1.13394356 31.08351612 C-1.1375701 28.19493577 -1.13640053 25.30637225 -1.13381577 22.41779137 C-1.13315091 21.03558023 -1.13395942 19.65336754 -1.13629532 18.27115822 C-1.13885324 16.33026791 -1.13425924 14.38937222 -1.12939453 12.44848633 C-1.12859894 11.34563797 -1.12780334 10.24278961 -1.12698364 9.10652161 C-0.99977221 5.99442726 -0.57915217 3.05753472 0 0 Z " fill="#CD2A2E" transform="translate(372,136)"/>
<path d="M0 0 C0.66 0 1.32 0 2 0 C2.34883943 5.22799136 2.60122324 10.44910061 2.76904297 15.68603516 C2.8390228 17.46197505 2.93426378 19.23712028 3.05615234 21.01025391 C4.0157866 35.34025447 4.0157866 35.34025447 0.61291504 39.8302002 C-3.0741459 43.31697118 -8.75263577 48 -14 48 C-14 46.68 -14 45.36 -14 44 C-12.88625 43.9175 -11.7725 43.835 -10.625 43.75 C-9.42875 43.5025 -8.2325 43.255 -7 43 C-5.83333333 41.08333333 -5.83333333 41.08333333 -5 39 C-3.35 38.34 -1.7 37.68 0 37 C0 24.79 0 12.58 0 0 Z " fill="#BC383B" transform="translate(395,151)"/>
<path d="M0 0 C0.54202465 16.842914 -1.05859657 33.4082001 -4 50 C-4.33 50 -4.66 50 -5 50 C-4.57002454 40.12187965 -3.89475424 30.42647517 -2.4765625 20.63671875 C-1.70865488 14.77670238 -1.34541381 8.89930423 -1 3 C-1.43957031 3.48082031 -1.87914062 3.96164063 -2.33203125 4.45703125 C-4.45383299 6.41982209 -6.18133384 6.61909917 -9 7 C-9.33 7.99 -9.66 8.98 -10 10 C-10.66 10 -11.32 10 -12 10 C-12.33 10.99 -12.66 11.98 -13 13 C-14.98 13 -16.96 13 -19 13 C-15.80043765 9.56401679 -12.23099822 6.89239164 -8.375 4.25 C-7.49714844 3.63318359 -7.49714844 3.63318359 -6.6015625 3.00390625 C-2.25038933 0 -2.25038933 0 0 0 Z " fill="#20618E" transform="translate(397,199)"/>
<path d="M0 0 C0 6.2374948 -7.06058278 11.09840013 -11.2800293 15.34375 C-13.51039914 17.57226769 -15.75453087 19.78671116 -18 22 C-18.56203125 22.60199219 -19.1240625 23.20398438 -19.703125 23.82421875 C-21 25 -21 25 -23 25 C-23 25.66 -23 26.32 -23 27 C-24.32 27.33 -25.64 27.66 -27 28 C-27 28.66 -27 29.32 -27 30 C-30.73486879 30.5745952 -34.21293268 31 -38 31 C-38.66 29.68 -39.32 28.36 -40 27 C-39.34 26.67 -38.68 26.34 -38 26 C-38.66 24.68 -39.32 23.36 -40 22 C-36.84866512 23.83827868 -33.88035092 25.75972706 -31 28 C-22.46940487 24.15827702 -15.5475351 16.72580672 -9 10.1875 C-8.44836182 9.63666748 -7.89672363 9.08583496 -7.32836914 8.51831055 C-4.65957151 5.81236028 -2.18113399 3.12780673 0 0 Z " fill="#E6AB42" transform="translate(280,321)"/>
<path d="M0 0 C2.47923801 -0.02685095 4.9581884 -0.04676547 7.4375 -0.0625 C8.14455078 -0.07087891 8.85160156 -0.07925781 9.58007812 -0.08789062 C11.38693559 -0.09653588 13.19387603 -0.05220011 15 0 C16.68503699 1.68503699 16.11965983 3.76259884 16.12442017 6.01094055 C16.12082489 6.72735214 16.11722961 7.44376373 16.11352539 8.18188477 C16.11367142 8.93305573 16.11381744 9.68422668 16.1139679 10.4581604 C16.11326863 12.95260459 16.10547564 15.44697503 16.09765625 17.94140625 C16.09579212 19.66633564 16.09436819 21.39126557 16.09336853 23.11619568 C16.08954297 27.66512503 16.07971238 32.21402267 16.06866455 36.76293945 C16.05845124 41.40120006 16.05387108 46.03946577 16.04882812 50.67773438 C16.03809014 59.78517022 16.02101327 68.89258248 16 78 C15.67 78 15.34 78 15 78 C14.67 53.25 14.34 28.5 14 3 C11.29816945 1.64908472 8.88191794 1.66141942 5.875 1.4375 C4.23144531 1.31181641 4.23144531 1.31181641 2.5546875 1.18359375 C1.71164062 1.12300781 0.86859375 1.06242188 0 1 C0 0.67 0 0.34 0 0 Z " fill="#D8AB5B" transform="translate(315,151)"/>
<path d="M0 0 C7 4.66666667 14 9.33333333 21 14 C23.97 12.02 26.94 10.04 30 8 C30.66 8.33 31.32 8.66 32 9 C31.38125 9.7425 30.7625 10.485 30.125 11.25 C28.38238162 13.50515319 27.20650438 15.45655832 26 18 C24.55903414 17.57405412 23.12231288 17.13373367 21.6875 16.6875 C20.88699219 16.44386719 20.08648437 16.20023437 19.26171875 15.94921875 C16.85684249 14.93991835 15.79892707 13.83720211 14 12 C11.96922316 11.01371583 11.96922316 11.01371583 9.8125 10.3125 C9.09707031 10.06113281 8.38164062 9.80976563 7.64453125 9.55078125 C7.10183594 9.36902344 6.55914062 9.18726563 6 9 C6 8.34 6 7.68 6 7 C5.01 6.67 4.02 6.34 3 6 C3 5.34 3 4.68 3 4 C2.34 4 1.68 4 1 4 C0.67 2.68 0.34 1.36 0 0 Z " fill="#165F90" transform="translate(230,395)"/>
<path d="M0 0 C6.18204489 2.17206983 6.18204489 2.17206983 8 5 C7.6875 8.1875 7.6875 8.1875 7 11 C7.99 11 8.98 11 10 11 C10.12375 11.639375 10.2475 12.27875 10.375 12.9375 C10.58125 13.618125 10.7875 14.29875 11 15 C11.66 15.33 12.32 15.66 13 16 C13.8515625 18.06640625 13.8515625 18.06640625 14.625 20.5625 C15.01558594 21.80193359 15.01558594 21.80193359 15.4140625 23.06640625 C15.60742188 23.70449219 15.80078125 24.34257812 16 25 C16.99 24.67 17.98 24.34 19 24 C19.28875 24.7425 19.5775 25.485 19.875 26.25 C20.82302644 28.56739797 21.84845911 30.77917115 23 33 C22.01 33 21.02 33 20 33 C18.68481445 31.56982422 18.68481445 31.56982422 17.36328125 29.5546875 C16.62609863 28.44275024 16.62609863 28.44275024 15.87402344 27.30834961 C15.3587207 26.50534424 14.84341797 25.70233887 14.3125 24.875 C13.78301758 24.06490479 13.25353516 23.25480957 12.70800781 22.42016602 C0 2.79750689 0 2.79750689 0 0 Z " fill="#176499" transform="translate(138,333)"/>
<path d="M0 0 C0.33 0 0.66 0 1 0 C1 4.95 1 9.9 1 15 C0.34 15 -0.32 15 -1 15 C-0.43628586 18.26954202 0.49962266 19.82575883 3 22 C1.7934375 23.0209375 1.7934375 23.0209375 0.5625 24.0625 C-2.43650905 27.50038842 -2.656788 29.53824404 -3 34 C-3.495 34.495 -3.495 34.495 -4 35 C-4.12375 36.051875 -4.2475 37.10375 -4.375 38.1875 C-5.00185594 42.01132125 -6.11723722 44.6437707 -8 48 C-9.46997772 44.12115556 -8.47821151 41.44964952 -7.3125 37.5625 C-5.46686122 31.11943928 -4.0534769 24.64797398 -2.8125 18.0625 C-2.64596924 17.18730713 -2.47943848 16.31211426 -2.30786133 15.41040039 C-1.35649463 10.28649261 -0.59394493 5.17751998 0 0 Z " fill="#1265A1" transform="translate(364,224)"/>
<path d="M0 0 C3.79379058 1.49041773 5.68343758 3.69062512 8 7 C8 7.66 8 8.32 8 9 C9.65 8.67 11.3 8.34 13 8 C12.79375 8.78375 12.5875 9.5675 12.375 10.375 C12.25125 11.24125 12.1275 12.1075 12 13 C14.46526886 15.46526886 16.71481573 15.95153693 20 17 C21 18 21 18 21.0625 21.0625 C21.041875 22.031875 21.02125 23.00125 21 24 C13.74083016 20.81036477 9.30099997 13.18089282 4.5625 7.0625 C4.11310059 6.48266357 3.66370117 5.90282715 3.20068359 5.30541992 C0 1.12368151 0 1.12368151 0 0 Z " fill="#EBA92F" transform="translate(192,330)"/>
<path d="M0 0 C0.66 0.33 1.32 0.66 2 1 C-13.14893617 16.34042553 -13.14893617 16.34042553 -20 22 C-23 18.375 -23 18.375 -23 15 C-21.02 15.66 -19.04 16.32 -17 17 C-16.9175 16.38125 -16.835 15.7625 -16.75 15.125 C-16 13 -16 13 -14.0625 11.8125 C-13.0415625 11.4103125 -13.0415625 11.4103125 -12 11 C-11.34 10.67 -10.68 10.34 -10 10 C-10 9.34 -10 8.68 -10 8 C-9.030625 7.360625 -8.06125 6.72125 -7.0625 6.0625 C-3.75744775 4.28938993 -3.75744775 4.28938993 -3 1 C-2.01 0.67 -1.02 0.34 0 0 Z " fill="#186394" transform="translate(317,395)"/>
<path d="M0 0 C2.31451134 2.31451134 3.19343207 4.40283544 4.5625 7.375 C7.93187543 14.28096551 12.22453827 20.01475463 17 26 C16.67 26.66 16.34 27.32 16 28 C15.236875 27.38125 14.47375 26.7625 13.6875 26.125 C11.00374191 23.94402948 11.00374191 23.94402948 8 22 C6.8125 19.875 6.8125 19.875 6 18 C5.67 18 5.34 18 5 18 C4.731875 16.96875 4.46375 15.9375 4.1875 14.875 C3.45760064 12.27046702 2.64574749 10.31874517 1.375 7.875 C-0.03464769 4.92755483 -0.28343361 3.21224754 0 0 Z " fill="#EEA936" transform="translate(204,296)"/>
<path d="M0 0 C0.66 0.33 1.32 0.66 2 1 C0.44200307 4.76878586 -1.909366 7.11271145 -4.8125 9.9375 C-5.66457031 10.77152344 -6.51664062 11.60554688 -7.39453125 12.46484375 C-8.25433594 13.30144531 -9.11414063 14.13804688 -10 15 C-11.66918619 16.66414333 -13.33602802 18.330643 -15 20 C-17.33333333 22.33333333 -19.66666667 24.66666667 -22 27 C-22.66 26.67 -23.32 26.34 -24 26 C-23.57589844 25.5875 -23.15179688 25.175 -22.71484375 24.75 C-18.96198907 21.05488154 -15.41497642 17.25355713 -11.9765625 13.265625 C-8.06015934 8.77646723 -4.01807583 4.39805484 0 0 Z " fill="#5DCBF5" transform="translate(358,98)"/>
<path d="M0 0 C3.30294471 3.07977277 5.73996272 6.3780019 8.25 10.125 C12.22206874 15.98686355 16.48078845 21.54492993 21 27 C19.68 27.33 18.36 27.66 17 28 C16.896875 27.38125 16.79375 26.7625 16.6875 26.125 C16.12474627 23.63473516 16.12474627 23.63473516 13 22 C11.22470656 19.33705985 10.01431642 17.04294926 9 14 C8.37609375 13.86207031 7.7521875 13.72414063 7.109375 13.58203125 C5 13 5 13 3.515625 11.07421875 C3.09796875 10.28660156 2.6803125 9.49898438 2.25 8.6875 C1.82203125 7.90761719 1.3940625 7.12773437 0.953125 6.32421875 C0 4 0 4 0 0 Z " fill="#13619B" transform="translate(175,334)"/>
<path d="M0 0 C0.33 0 0.66 0 1 0 C1 20.13 1 40.26 1 61 C1.99 61.33 2.98 61.66 4 62 C3.01 62.66 2.02 63.32 1 64 C0 63 0 63 -0.12025452 60.48802185 C-0.11803391 59.37105423 -0.11581329 58.25408661 -0.11352539 57.10327148 C-0.11344986 55.84203964 -0.11337433 54.5808078 -0.11329651 53.28135681 C-0.1081891 51.89460206 -0.10297309 50.50784771 -0.09765625 49.12109375 C-0.09579201 47.71004791 -0.09436814 46.29900143 -0.09336853 44.88795471 C-0.08954379 41.16759465 -0.0797139 37.4472734 -0.06866455 33.72692871 C-0.05844948 29.93319219 -0.05387071 26.13944942 -0.04882812 22.34570312 C-0.03809158 14.89711769 -0.0210157 7.44856428 0 0 Z " fill="#A03D38" transform="translate(371,142)"/>
<path d="M0 0 C3.37578028 2.75941591 6.50000821 5.35715341 9.1875 8.8125 C11.21716543 11.26209621 11.99994671 11.41934452 15 12 C16.75 13.3125 16.75 13.3125 18 15 C18 16.32 18 17.64 18 19 C19.91666921 21.25065102 19.91666921 21.25065102 22 23 C21.67 23.66 21.34 24.32 21 25 C15.20084175 19.44761444 9.9418432 13.66877048 4.9453125 7.3828125 C3.1116126 5.04060211 3.1116126 5.04060211 1.2421875 3.3046875 C0 2 0 2 0 0 Z " fill="#146398" transform="translate(165,373)"/>
<path d="M0 0 C1.13583456 3.71727674 0.66670026 5.47051709 -1 9 C-2.32 9 -3.64 9 -5 9 C-5.66 10.98 -6.32 12.96 -7 15 C-8.98 15 -10.96 15 -13 15 C-11.38989473 10.92623969 -8.46177729 8.23492931 -5.375 5.25 C-4.859375 4.74339844 -4.34375 4.23679687 -3.8125 3.71484375 C-2.54616661 2.47196098 -1.2736856 1.23534724 0 0 Z " fill="#0D64A3" transform="translate(294,374)"/>
<path d="M0 0 C0.33 0 0.66 0 1 0 C1 2.64 1 5.28 1 8 C1.99 8 2.98 8 4 8 C3.83701416 8.5662207 3.67402832 9.13244141 3.50610352 9.71582031 C2.98315828 12.07601117 2.88603258 14.13282157 2.90234375 16.546875 C2.90556641 17.39121094 2.90878906 18.23554688 2.91210938 19.10546875 C2.92048828 19.97816406 2.92886719 20.85085937 2.9375 21.75 C2.94426758 23.08224609 2.94426758 23.08224609 2.95117188 24.44140625 C2.962926 26.62767329 2.97935751 28.81380179 3 31 C1.02 30.67 -0.96 30.34 -3 30 C-2.34 29.34 -1.68 28.68 -1 28 C-0.62731113 25.08811755 -0.62731113 25.08811755 -0.5859375 21.6796875 C-0.54726563 20.42285156 -0.50859375 19.16601562 -0.46875 17.87109375 C-0.4378125 16.55238281 -0.406875 15.23367187 -0.375 13.875 C-0.33681971 12.53513082 -0.29776794 11.19528617 -0.2578125 9.85546875 C-0.1632797 6.57045381 -0.07772844 3.28544862 0 0 Z " fill="#ECAB3D" transform="translate(300,181)"/>
<path d="M0 0 C0.33 0 0.66 0 1 0 C1.86811162 4.24727514 2.71706514 8.49815784 3.5625 12.75 C3.9327832 14.55984375 3.9327832 14.55984375 4.31054688 16.40625 C4.53935547 17.56640625 4.76816406 18.7265625 5.00390625 19.921875 C5.21861572 20.99018555 5.4333252 22.05849609 5.65454102 23.15917969 C5.98084406 25.84247453 5.87612613 27.47547851 5 30 C3.06892959 24.64401226 1.7056382 19.64510557 1 14 C0.67 13.67 0.34 13.34 0 13 C-0.66 13.99 -1.32 14.98 -2 16 C-3 15 -3 15 -3.0625 12.4375 C-3.041875 11.633125 -3.02125 10.82875 -3 10 C-2.34 10 -1.68 10 -1 10 C-0.67 6.7 -0.34 3.4 0 0 Z " fill="#10629D" transform="translate(139,236)"/>
<path d="M0 0 C0.33 0.66 0.66 1.32 1 2 C0.06421005 4.35981813 -0.93347808 6.69631264 -2 9 C-2.99 9 -3.98 9 -5 9 C-5 9.66 -5 10.32 -5 11 C-5.66 11 -6.32 11 -7 11 C-7.33 12.98 -7.66 14.96 -8 17 C-9.32 17 -10.64 17 -12 17 C-12.226875 17.556875 -12.45375 18.11375 -12.6875 18.6875 C-14.35896766 21.63246684 -16.55276352 23.68156544 -19 26 C-19.66 25.67 -20.32 25.34 -21 25 C-20.23816406 24.20078125 -19.47632813 23.4015625 -18.69140625 22.578125 C-11.91099511 15.39128571 -5.74117915 8.04634956 0 0 Z " fill="#176293" transform="translate(316,348)"/>
<path d="M0 0 C11.97541068 1.1514818 22.24408817 4.63939233 33 10 C30.29600727 11.35199636 28.81082405 10.48075874 26.04696655 9.58863831 C25.37920197 9.36473923 24.71143738 9.14084015 24.0234375 8.91015625 C23.33819 8.68678085 22.6529425 8.46340546 21.94692993 8.23326111 C19.75393858 7.51661901 17.56451048 6.78969944 15.375 6.0625 C13.89084781 5.57549234 12.40647531 5.08915551 10.921875 4.60351562 C7.27864591 3.41011926 3.63857995 2.20749335 0 1 C0 0.67 0 0.34 0 0 Z " fill="#E6A94C" transform="translate(265,271)"/>
<path d="M0 0 C1.32 0 2.64 0 4 0 C4 0.66 4 1.32 4 2 C4.99 2 5.98 2 7 2 C7 1.34 7 0.68 7 0 C7.99 0 8.98 0 10 0 C9.67 2.31 9.34 4.62 9 7 C9.5775 7.061875 10.155 7.12375 10.75 7.1875 C13.88257571 8.3187079 15.03460851 10.37947801 17 13 C17.66 13.33 18.32 13.66 19 14 C18.67 14.66 18.34 15.32 18 16 C4.69251337 5.17112299 4.69251337 5.17112299 0 1 C0 0.67 0 0.34 0 0 Z " fill="#F1A831" transform="translate(215,357)"/>
<path d="M0 0 C0.33 0.66 0.66 1.32 1 2 C-0.12989905 4.35844008 -1.30891033 6.56129398 -2.625 8.8125 C-2.96917969 9.42931641 -3.31335938 10.04613281 -3.66796875 10.68164062 C-6.007819 14.74400056 -8.55148418 17.82373543 -12 21 C-12.125 15.25 -12.125 15.25 -11 13 C-10.01 12.67 -9.02 12.34 -8 12 C-7.29788106 10.34795544 -6.63028587 8.68076231 -6 7 C-5.34 6.67 -4.68 6.34 -4 6 C-3.67 5.01 -3.34 4.02 -3 3 C-2.34 3 -1.68 3 -1 3 C-0.67 2.01 -0.34 1.02 0 0 Z " fill="#E1A943" transform="translate(320,308)"/>
<path d="M0 0 C2.33698908 3.50548362 3.45185838 7.0809881 4.6875 11.0625 C5.04424805 12.16174805 5.04424805 12.16174805 5.40820312 13.28320312 C7.12194293 18.75611413 7.12194293 18.75611413 6 21 C5.01 20.34 4.02 19.68 3 19 C2.67 19.66 2.34 20.32 2 21 C1.67 20.01 1.34 19.02 1 18 C1.66 17.01 2.32 16.02 3 15 C2.34 14.34 1.68 13.68 1 13 C0.34 12.34 -0.32 11.68 -1 11 C-0.9765625 8.3984375 -0.9765625 8.3984375 -0.625 5.375 C-0.51414063 4.37210937 -0.40328125 3.36921875 -0.2890625 2.3359375 C-0.19367188 1.56507813 -0.09828125 0.79421875 0 0 Z " fill="#13629A" transform="translate(145,266)"/>
<path d="M0 0 C0.625 1.8125 0.625 1.8125 1 4 C0.01 5.485 0.01 5.485 -1 7 C-1 7.845625 -1 8.69125 -1 9.5625 C-1 10.366875 -1 11.17125 -1 12 C-1.66 12.66 -2.32 13.32 -3 14 C-4.32 14 -5.64 14 -7 14 C-7.309375 14.61875 -7.61875 15.2375 -7.9375 15.875 C-8.625 17.25 -9.3125 18.625 -10 20 C-10.66 19.67 -11.32 19.34 -12 19 C-11.67201416 18.49549316 -11.34402832 17.99098633 -11.00610352 17.47119141 C-9.5238215 15.18982774 -8.04314259 12.90742798 -6.5625 10.625 C-6.04623047 9.8309375 -5.52996094 9.036875 -4.99804688 8.21875 C-4.50498047 7.45820313 -4.01191406 6.69765625 -3.50390625 5.9140625 C-3.04830322 5.2123291 -2.5927002 4.5105957 -2.12329102 3.78759766 C-0.95907635 1.99917345 -0.95907635 1.99917345 0 0 Z " fill="#13629A" transform="translate(329,328)"/>
<path d="M0 0 C1.32 0 2.64 0 4 0 C4.12375 0.969375 4.2475 1.93875 4.375 2.9375 C4.58125 3.948125 4.7875 4.95875 5 6 C5.66 6.33 6.32 6.66 7 7 C6.01 7.99 5.02 8.98 4 10 C4.99 9.67 5.98 9.34 7 9 C7 12.3 7 15.6 7 19 C4.92782515 15.89173772 3.71574645 12.98123641 2.375 9.5 C1.92898437 8.3553125 1.48296875 7.210625 1.0234375 6.03125 C0 3 0 3 0 0 Z " fill="#0F669D" transform="translate(119,288)"/>
<path d="M0 0 C1.32 0 2.64 0 4 0 C4.33 2.31 4.66 4.62 5 7 C5.99 6.67 6.98 6.34 8 6 C8.73323796 3.98491642 8.73323796 3.98491642 9 2 C9.66 2 10.32 2 11 2 C11 2.66 11 3.32 11 4 C11.66 4 12.32 4 13 4 C11.9024777 6.99324263 11.32317108 7.84610901 8.375 9.25 C7.59125 9.4975 6.8075 9.745 6 10 C3.69 7.36 1.38 4.72 -1 2 C-0.67 1.34 -0.34 0.68 0 0 Z " fill="#D72428" transform="translate(351,131)"/>
<path d="M0 0 C0.33 0 0.66 0 1 0 C1.61528766 5.07612318 -0.38341651 7.82982006 -3 12 C-3.66 12 -4.32 12 -5 12 C-5.103125 12.7425 -5.20625 13.485 -5.3125 14.25 C-6.04933797 17.1973519 -6.94799142 18.78383074 -9 21 C-9.66 21 -10.32 21 -11 21 C-11 21.66 -11 22.32 -11 23 C-11.66 22.67 -12.32 22.34 -13 22 C-12.31292969 20.91460937 -11.62585938 19.82921875 -10.91796875 18.7109375 C-10.00766721 17.2657165 -9.09751908 15.82039887 -8.1875 14.375 C-7.73568359 13.66214844 -7.28386719 12.94929688 -6.81835938 12.21484375 C-4.3162983 8.23346189 -2.02028903 4.25535962 0 0 Z " fill="#E7AD3F" transform="translate(294,298)"/>
<path d="M0 0 C1.485 0.99 1.485 0.99 3 2 C3.6875 5.625 3.6875 5.625 4 9 C4.66 9 5.32 9 6 9 C5.979375 10.155 5.95875 11.31 5.9375 12.5 C5.92992231 16.74350547 6.40025235 20.80176644 7 25 C5.19812437 22.29718656 4.50867207 20.70766547 3.7109375 17.65625 C3.49179688 16.82222656 3.27265625 15.98820312 3.046875 15.12890625 C2.71429688 13.82759766 2.71429688 13.82759766 2.375 12.5 C2.03082031 11.19869141 2.03082031 11.19869141 1.6796875 9.87109375 C0 3.40229725 0 3.40229725 0 0 Z " fill="#196397" transform="translate(112,263)"/>
<path d="M0 0 C0 3 0 3 -1.56054688 4.90112305 C-2.27275391 5.59761963 -2.98496094 6.29411621 -3.71875 7.01171875 C-4.48574219 7.76904297 -5.25273437 8.52636719 -6.04296875 9.30664062 C-6.85378906 10.09232422 -7.66460937 10.87800781 -8.5 11.6875 C-9.31082031 12.48478516 -10.12164062 13.28207031 -10.95703125 14.10351562 C-12.96482203 16.0758748 -14.9792687 18.04091492 -17 20 C-17 19.01 -17 18.02 -17 17 C-15.66666667 15.66666667 -14.33333333 14.33333333 -13 13 C-12.2127322 10.8618034 -12.2127322 10.8618034 -12 9 C-11.01 9 -10.02 9 -9 9 C-8.67 8.01 -8.34 7.02 -8 6 C-6.35666496 4.96210419 -4.68756133 3.96432076 -3 3 C-1.24850835 1.41754725 -1.24850835 1.41754725 0 0 Z " fill="#E2AA49" transform="translate(296,343)"/>
<path d="M0 0 C-3.61916242 1.7002329 -7.24617996 3.38299035 -10.875 5.0625 C-11.90753906 5.54783203 -12.94007813 6.03316406 -14.00390625 6.53320312 C-14.99003906 6.98759766 -15.97617187 7.44199219 -16.9921875 7.91015625 C-17.90339355 8.33433838 -18.81459961 8.75852051 -19.75341797 9.19555664 C-20.86547607 9.5937561 -20.86547607 9.5937561 -22 10 C-22.66 9.67 -23.32 9.34 -24 9 C-17.375 5 -17.375 5 -14 5 C-14 4.34 -14 3.68 -14 3 C-13.34 2.67 -12.68 2.34 -12 2 C-11.67 1.34 -11.34 0.68 -11 0 C-6.97268577 -0.83585767 -3.93421227 -1.15507777 0 0 Z " fill="#E8AE45" transform="translate(321,235)"/>
<path d="M0 0 C0.99 0.33 1.98 0.66 3 1 C2.67 1.66 2.34 2.32 2 3 C-0.5625 3.625 -0.5625 3.625 -3 4 C-3.33 4.99 -3.66 5.98 -4 7 C-4.66 7 -5.32 7 -6 7 C-6.33 7.99 -6.66 8.98 -7 10 C-8.98 10 -10.96 10 -13 10 C-9.3874868 5.91628943 -4.86491739 2.46381636 0 0 Z " fill="#156196" transform="translate(391,202)"/>
<path d="M0 0 C0.66 0.33 1.32 0.66 2 1 C1.38125 1.7425 0.7625 2.485 0.125 3.25 C-2.19670804 6.07171298 -2.19670804 6.07171298 -4 10 C-6.97 9.01 -9.94 8.02 -13 7 C-11.68 6.67 -10.36 6.34 -9 6 C-7.38292557 5.03350353 -5.79974043 4.00864412 -4.25 2.9375 C-3.45078125 2.38964844 -2.6515625 1.84179688 -1.828125 1.27734375 C-1.22484375 0.85582031 -0.6215625 0.43429687 0 0 Z " fill="#0F629C" transform="translate(260,403)"/>
<path d="M0 0 C0.99 0 1.98 0 3 0 C1.55797524 4.15151338 -0.5010438 7.29978445 -3.125 10.8125 C-4.21167969 12.27623047 -4.21167969 12.27623047 -5.3203125 13.76953125 C-5.87460937 14.50558594 -6.42890625 15.24164063 -7 16 C-7.33 15.01 -7.66 14.02 -8 13 C-7.34 13 -6.68 13 -6 13 C-6 12.01 -6 11.02 -6 10 C-5.34 10 -4.68 10 -4 10 C-4.0825 9.278125 -4.165 8.55625 -4.25 7.8125 C-3.92058601 4.10659265 -2.59688473 2.59688473 0 0 Z " fill="#146398" transform="translate(349,352)"/>
<path d="M0 0 C0.66 0 1.32 0 2 0 C2 4.62 2 9.24 2 14 C0 12 0 12 -0.4375 9.5 C-0.7765556 6.65063471 -0.7765556 6.65063471 -4 5 C-4 4.34 -4 3.68 -4 3 C-3.01 3 -2.02 3 -1 3 C-0.67 2.01 -0.34 1.02 0 0 Z " fill="#0864A9" transform="translate(394,202)"/>
<path d="M0 0 C0 0.66 0 1.32 0 2 C-2.44111325 3.67390623 -4.80478747 4.9238195 -7.5625 6 C-10.07017951 7.02879159 -11.90709098 8.29466672 -14 10 C-14 9.34 -14 8.68 -14 8 C-14.99 8.33 -15.98 8.66 -17 9 C-17 8.34 -17 7.68 -17 7 C-14.54379149 5.82866942 -12.08525083 4.66278278 -9.625 3.5 C-8.92632812 3.16613281 -8.22765625 2.83226562 -7.5078125 2.48828125 C-2.2265625 0 -2.2265625 0 0 0 Z " fill="#E7AC42" transform="translate(271,222)"/>
<path d="M0 0 C1.12894876 0.93274109 2.25300876 1.87140122 3.375 2.8125 C4.00148437 3.33457031 4.62796875 3.85664063 5.2734375 4.39453125 C7 6 7 6 9 9 C4.545 9.495 4.545 9.495 0 10 C0 9.01 0 8.02 0 7 C0.99 6.34 1.98 5.68 3 5 C2.2575 4.319375 2.2575 4.319375 1.5 3.625 C0 2 0 2 0 0 Z " fill="#F2A837" transform="translate(231,334)"/>
<path d="M0 0 C5.4185766 -0.22577402 9.77487721 0.53329887 15 2 C12.08235 3.9451 10.37462715 4.45276317 7 5 C6.67 4.34 6.34 3.68 6 3 C2.97065509 2.34227572 2.97065509 2.34227572 0 2 C0 1.34 0 0.68 0 0 Z " fill="#F0A633" transform="translate(314,257)"/>
<path d="M0 0 C0.66 0.33 1.32 0.66 2 1 C0.52278578 4.45201639 -1.43794001 6.64961936 -4.125 9.25 C-4.84945313 9.95640625 -5.57390625 10.6628125 -6.3203125 11.390625 C-6.87460937 11.92171875 -7.42890625 12.4528125 -8 13 C-8.66 12.34 -9.32 11.68 -10 11 C-6.7 7.37 -3.4 3.74 0 0 Z " fill="#33B9DF" transform="translate(358,98)"/>
<path d="M0 0 C0 0.66 0 1.32 0 2 C-1.49853516 2.63228516 -1.49853516 2.63228516 -3.02734375 3.27734375 C-4.33078308 3.83060217 -5.63416557 4.38399451 -6.9375 4.9375 C-7.59685547 5.21529297 -8.25621094 5.49308594 -8.93554688 5.77929688 C-12.20468496 7.00792883 -12.20468496 7.00792883 -15 9 C-16.66617115 9.04063832 -18.33388095 9.042721 -20 9 C-16.61736896 6.1698087 -12.90881541 4.4967219 -8.875 2.8125 C-8.24207031 2.53986328 -7.60914063 2.26722656 -6.95703125 1.98632812 C-2.2675047 0 -2.2675047 0 0 0 Z " fill="#E9AB46" transform="translate(292,213)"/>
<path d="M0 0 C1.485 0.99 1.485 0.99 3 2 C3 2.66 3 3.32 3 4 C3.66 4 4.32 4 5 4 C7.61588503 7.55760365 8.49357808 10.64477147 9 15 C4.82093105 11.44005237 2.31440569 6.91336946 0 2 C0 1.34 0 0.68 0 0 Z " fill="#E8AC40" transform="translate(180,310)"/>
<path d="M0 0 C2.15178156 2.76387192 3.98370421 5.56533069 5.6875 8.625 C6.34298828 9.78902344 6.34298828 9.78902344 7.01171875 10.9765625 C8 13 8 13 8 15 C7.34 15 6.68 15 6 15 C4.5984084 12.98745822 3.43199526 10.88057705 2.21875 8.75 C1.8165625 8.1725 1.414375 7.595 1 7 C0.34 7 -0.32 7 -1 7 C-0.67 4.69 -0.34 2.38 0 0 Z " fill="#146297" transform="translate(161,309)"/>
<path d="M0 0 C1.32 0.33 2.64 0.66 4 1 C2.2126038 2.33905267 0.41995047 3.67109066 -1.375 5 C-2.37273437 5.7425 -3.37046875 6.485 -4.3984375 7.25 C-7 9 -7 9 -9 9 C-9 7.68 -9 6.36 -9 5 C-7.329375 4.87625 -7.329375 4.87625 -5.625 4.75 C-1.94246056 4.42126213 -1.94246056 4.42126213 -0.5625 1.9375 C-0.376875 1.298125 -0.19125 0.65875 0 0 Z " fill="#BC3A40" transform="translate(390,190)"/>
<path d="M0 0 C4.87072783 4.56630734 8.89156398 9.74976539 13 15 C11.68 15.33 10.36 15.66 9 16 C8.896875 15.38125 8.79375 14.7625 8.6875 14.125 C8.12474627 11.63473516 8.12474627 11.63473516 5 10 C2.84978236 6.81767789 1.33510497 3.59451337 0 0 Z " fill="#1A6290" transform="translate(183,346)"/>
<path d="M0 0 C2.42441394 2.42441394 3.58744904 4.87353974 5.125 7.9375 C5.93324219 9.52884766 5.93324219 9.52884766 6.7578125 11.15234375 C8 14 8 14 8 17 C3.0557216 11.42316379 0.13765576 7.57106659 0 0 Z " fill="#E8AC43" transform="translate(204,296)"/>
<path d="M0 0 C0 4.29 0 8.58 0 13 C-0.33 13 -0.66 13 -1 13 C-1 10.36 -1 7.72 -1 5 C-3.31 5.66 -5.62 6.32 -8 7 C-8.66 6.34 -9.32 5.68 -10 5 C-9.2575 4.731875 -8.515 4.46375 -7.75 4.1875 C-5.48384915 3.20893486 -2.32083146 0 0 0 Z " fill="#F13238" transform="translate(372,129)"/>
<path d="M0 0 C1.32 0 2.64 0 4 0 C4 0.66 4 1.32 4 2 C7.63 2 11.26 2 15 2 C12 5 12 5 9.1875 5.4375 C5.25352457 4.89754259 3.09475906 3.43159641 0 1 C0 0.67 0 0.34 0 0 Z " fill="#166291" transform="translate(243,442)"/>
<path d="M0 0 C0.93045933 2.55144824 1.08564091 3.74006478 0.22265625 6.359375 C-0.16019531 7.14828125 -0.54304688 7.9371875 -0.9375 8.75 C-1.50791016 9.94882812 -1.50791016 9.94882812 -2.08984375 11.171875 C-2.39019531 11.77515625 -2.69054687 12.3784375 -3 13 C-5 10 -5 10 -4.3125 6.5 C-3.15493615 3.41316307 -2.5410088 1.9635068 0 0 Z " fill="#EBA83F" transform="translate(326,292)"/>
<path d="M0 0 C2.64 0.66 5.28 1.32 8 2 C8 2.66 8 3.32 8 4 C8.99 4.33 9.98 4.66 11 5 C11 5.99 11 6.98 11 8 C6.99698968 6.23867546 3.3971023 3.73867517 0 1 C0 0.67 0 0.34 0 0 Z " fill="#196395" transform="translate(220,426)"/>
<path d="M0 0 C0.33 0.66 0.66 1.32 1 2 C2.32 2.33 3.64 2.66 5 3 C2.69 4.65 0.38 6.3 -2 8 C-2.66 7.34 -3.32 6.68 -4 6 C-3.34 5.67 -2.68 5.34 -2 5 C-2.33 4.01 -2.66 3.02 -3 2 C-2.01 1.34 -1.02 0.68 0 0 Z " fill="#ECA933" transform="translate(257,374)"/>
<path d="M0 0 C2.95409701 1.37154504 5.44008376 2.98863724 8 5 C8 4.34 8 3.68 8 3 C8.66 3 9.32 3 10 3 C10.33 3.99 10.66 4.98 11 6 C10.01 7.485 10.01 7.485 9 9 C7.68412059 7.87895467 6.37239647 6.75303035 5.0625 5.625 C4.33160156 4.99851562 3.60070312 4.37203125 2.84765625 3.7265625 C1 2 1 2 0 0 Z " fill="#17639A" transform="translate(196,406)"/>
<path d="M0 0 C0.33 0 0.66 0 1 0 C1.19294408 4.82360189 0.75747614 8.49646738 -1 13 C-2.32 12.34 -3.64 11.68 -5 11 C-4.34 9.35 -3.68 7.7 -3 6 C-2.01 6 -1.02 6 0 6 C0 4.02 0 2.04 0 0 Z " fill="#0B65A7" transform="translate(391,244)"/>
<path d="M0 0 C0.66 0.33 1.32 0.66 2 1 C0.54601271 2.81598825 -0.91332325 4.62769519 -2.375 6.4375 C-3.59316406 7.95150391 -3.59316406 7.95150391 -4.8359375 9.49609375 C-7 12 -7 12 -9 13 C-7.66666667 10.33333333 -6.33333333 7.66666667 -5 5 C-4.34 5 -3.68 5 -3 5 C-3 4.01 -3 3.02 -3 2 C-2.01 1.34 -1.02 0.68 0 0 Z " fill="#DFAA43" transform="translate(306,330)"/>
<path d="M0 0 C0.66 0 1.32 0 2 0 C0.68938409 4.23429756 -0.94356259 8.07407404 -3 12 C-5 8.25 -5 8.25 -5 6 C-3.625 4.375 -3.625 4.375 -2 3 C-1.34 3 -0.68 3 0 3 C0 2.01 0 1.02 0 0 Z " fill="#156394" transform="translate(369,317)"/>
<path d="M0 0 C0.33 0 0.66 0 1 0 C0.40546697 13.81776765 0.40546697 13.81776765 -3 19 C-4.67641098 14.90913548 -3.2409319 11.28488982 -2.0625 7.25 C-1.86720703 6.55261719 -1.67191406 5.85523438 -1.47070312 5.13671875 C-0.9891754 3.42201027 -0.49574843 1.71065123 0 0 Z " fill="#1B5F8E" transform="translate(359,253)"/>
<path d="M0 0 C0.33 1.32 0.66 2.64 1 4 C-0.65 5.32 -2.3 6.64 -4 8 C-5.4606285 5.35261084 -6 4.10551666 -6 1 C-4.02 1.66 -2.04 2.32 0 3 C0 2.01 0 1.02 0 0 Z " fill="#0E639E" transform="translate(300,409)"/>
<path d="M0 0 C0.99 0.33 1.98 0.66 3 1 C0.03 4.3 -2.94 7.6 -6 11 C-6 8 -6 8 -4 6 C-3.67 5.154375 -3.34 4.30875 -3 3.4375 C-2 1 -2 1 0 0 Z " fill="#166295" transform="translate(326,384)"/>
<path d="M0 0 C5.71307898 1.32862302 7.57073177 3.52289981 11 8 C11.66 8.33 12.32 8.66 13 9 C12.67 9.66 12.34 10.32 12 11 C10.18401175 9.54601271 8.37230481 8.08667675 6.5625 6.625 C5.04849609 5.40683594 5.04849609 5.40683594 3.50390625 4.1640625 C1 2 1 2 0 0 Z " fill="#E0AA4D" transform="translate(221,362)"/>
<path d="M0 0 C0.33 0 0.66 0 1 0 C1.54330269 6.65545792 0.77304004 10.45834744 -3 16 C-4.57159226 12.85681547 -3.04018399 10.07066611 -2.0625 6.875 C-1.86720703 6.21628906 -1.67191406 5.55757813 -1.47070312 4.87890625 C-0.98695014 3.25066448 -0.49430925 1.62506818 0 0 Z " fill="#E4AA44" transform="translate(299,282)"/>
<path d="M0 0 C0.93423645 3.01031744 1.04449911 3.86650268 0 7 C0.99 7.33 1.98 7.66 3 8 C0.69 8.66 -1.62 9.32 -4 10 C-2.8905928 6.51329166 -1.73662334 3.22515763 0 0 Z " fill="#15639C" transform="translate(340,308)"/>
<path d="M0 0 C0.33 0 0.66 0 1 0 C1.53181175 2.24743045 2.05007126 4.49807102 2.5625 6.75 C2.85253906 8.00296875 3.14257812 9.2559375 3.44140625 10.546875 C3.93444283 13.59473748 4.07666879 15.17641828 3 18 C0.5206176 11.75726932 -0.31985731 6.71700347 0 0 Z " fill="#1A6392" transform="translate(141,248)"/>
<path d="M0 0 C1.34225608 2.68451215 1.01281295 5.08913934 0.96484375 8.03125 C1.00258695 10.14486899 1.45251028 11.96646676 2 14 C1.67 14.66 1.34 15.32 1 16 C0.34 16 -0.32 16 -1 16 C-1.02685095 13.52076199 -1.04676547 11.0418116 -1.0625 8.5625 C-1.07506836 7.50192383 -1.07506836 7.50192383 -1.08789062 6.41992188 C-1.09653588 4.61306441 -1.05220011 2.80612397 -1 1 C-0.67 0.67 -0.34 0.34 0 0 Z " fill="#F3AB32" transform="translate(252,230)"/>
<path d="M0 0 C3.98381075 2.16264012 6.88983545 4.71211176 10 8 C6.14354522 6.86059291 2.93494171 5.82205934 0 3 C0 2.01 0 1.02 0 0 Z " fill="#17618E" transform="translate(220,387)"/>
<path d="M0 0 C1.32 0.33 2.64 0.66 4 1 C-0.455 4.465 -0.455 4.465 -5 8 C-5.33 7.34 -5.66 6.68 -6 6 C-5.34 6 -4.68 6 -4 6 C-4 5.01 -4 4.02 -4 3 C-3.01 2.67 -2.02 2.34 -1 2 C-0.67 1.34 -0.34 0.68 0 0 Z " fill="#E6AA45" transform="translate(268,368)"/>
<path d="M0 0 C1.12894876 0.93274109 2.25300876 1.87140122 3.375 2.8125 C4.00148437 3.33457031 4.62796875 3.85664063 5.2734375 4.39453125 C7 6 7 6 9 9 C7.35 9 5.7 9 4 9 C3.896875 8.401875 3.79375 7.80375 3.6875 7.1875 C2.90614947 4.70138466 1.85104584 3.77056558 0 2 C0 1.34 0 0.68 0 0 Z " fill="#1C6497" transform="translate(200,367)"/>
<path d="M0 0 C2.125 0.375 2.125 0.375 4 1 C2.68 1.33 1.36 1.66 0 2 C0 2.66 0 3.32 0 4 C-2.31 4.33 -4.62 4.66 -7 5 C-7 3.68 -7 2.36 -7 1 C-5.824375 1.309375 -5.824375 1.309375 -4.625 1.625 C-3.75875 1.74875 -2.8925 1.8725 -2 2 C-1.34 1.34 -0.68 0.68 0 0 Z " fill="#ECA93F" transform="translate(253,347)"/>
<path d="M0 0 C0.33 0.66 0.66 1.32 1 2 C-0.21484375 4.6015625 -0.21484375 4.6015625 -1.9375 7.625 C-2.78634766 9.12933594 -2.78634766 9.12933594 -3.65234375 10.6640625 C-4.09707031 11.43492187 -4.54179687 12.20578125 -5 13 C-5.33 12.34 -5.66 11.68 -6 11 C-5.29296875 8.90625 -5.29296875 8.90625 -4.1875 6.5 C-3.83042969 5.7059375 -3.47335937 4.911875 -3.10546875 4.09375 C-2 2 -2 2 0 0 Z " fill="#146191" transform="translate(364,329)"/>
<path d="M0 0 C3.78717347 1.48781815 5.77407001 3.61988409 8 7 C7.67 7.99 7.34 8.98 7 10 C5.83043409 8.52312468 4.66441854 7.04343707 3.5 5.5625 C2.8503125 4.73878906 2.200625 3.91507812 1.53125 3.06640625 C0 1 0 1 0 0 Z " fill="#DFA94A" transform="translate(192,330)"/>
<path d="M0 0 C0.66 0.33 1.32 0.66 2 1 C0 4 0 4 -2.1640625 4.51171875 C-2.97617187 4.56972656 -3.78828125 4.62773437 -4.625 4.6875 C-5.85089844 4.78611328 -5.85089844 4.78611328 -7.1015625 4.88671875 C-7.72804688 4.92410156 -8.35453125 4.96148437 -9 5 C-8.67 4.01 -8.34 3.02 -8 2 C-6.8553125 2.061875 -6.8553125 2.061875 -5.6875 2.125 C-2.77281584 2.22080824 -2.77281584 2.22080824 0 0 Z M-11 5 C-9 6 -9 6 -9 6 Z " fill="#F5AA24" transform="translate(280,219)"/>
<path d="M0 0 C3 0 3 0 6 1 C3.03 3.475 3.03 3.475 0 6 C-0.66 5.67 -1.32 5.34 -2 5 C-1.34 3.35 -0.68 1.7 0 0 Z " fill="#11649E" transform="translate(282,423)"/>
<path d="M0 0 C0 0.99 0 1.98 0 3 C-1.63260714 4.37482707 -3.30225062 5.70647667 -5 7 C-5.99 8.485 -5.99 8.485 -7 10 C-7.66 10 -8.32 10 -9 10 C-7.61811547 6.78956118 -6.07578097 4.95063635 -3.375 2.75 C-2.74335938 2.22921875 -2.11171875 1.7084375 -1.4609375 1.171875 C-0.73777344 0.59179688 -0.73777344 0.59179688 0 0 Z " fill="#1D6290" transform="translate(279,388)"/>
<path d="M0 0 C2.31 0 4.62 0 7 0 C5.71937515 1.7074998 4.38232443 3.37373596 3 5 C2.34 5 1.68 5 1 5 C0.67 3.35 0.34 1.7 0 0 Z " fill="#1065A2" transform="translate(288,417)"/>
<path d="M0 0 C-2.35968744 2.09749995 -3.54616994 2.96905704 -6.75 3.1875 C-7.86375 3.0946875 -7.86375 3.0946875 -9 3 C-8.67 2.01 -8.34 1.02 -8 0 C-2.25 -1.125 -2.25 -1.125 0 0 Z " fill="#F3A727" transform="translate(301,242)"/>
<path d="M0 0 C-0.33 1.65 -0.66 3.3 -1 5 C-1.33 4.34 -1.66 3.68 -2 3 C-2.33 3.66 -2.66 4.32 -3 5 C-4.32 4.67 -5.64 4.34 -7 4 C-3.375 0 -3.375 0 0 0 Z " fill="#DA2126" transform="translate(372,98)"/>
<path d="M0 0 C0.268125 0.598125 0.53625 1.19625 0.8125 1.8125 C1.8893979 4.04327908 1.8893979 4.04327908 3.625 5.625 C4.07875 6.07875 4.5325 6.5325 5 7 C5 7.66 5 8.32 5 9 C4.01 9 3.02 9 2 9 C0.93347808 6.69631264 -0.06421005 4.35981813 -1 2 C-0.67 1.34 -0.34 0.68 0 0 Z " fill="#115E97" transform="translate(156,357)"/>
<path d="M0 0 C0.66 0 1.32 0 2 0 C2.1875 2.875 2.1875 2.875 2 6 C1.01 6.66 0.02 7.32 -1 8 C-1.125 2.25 -1.125 2.25 0 0 Z " fill="#EFA635" transform="translate(309,321)"/>
<path d="M0 0 C1.99097846 2.98646769 2.94124926 5.59687262 4 9 C0.125 7.25 0.125 7.25 -1 5 C-0.72057545 3.32345271 -0.39171753 1.65391846 0 0 Z " fill="#155F98" transform="translate(155,295)"/>
<path d="M0 0 C-1.65 1.32 -3.3 2.64 -5 4 C-5 3.34 -5 2.68 -5 2 C-5.99 2.33 -6.98 2.66 -8 3 C-8 2.34 -8 1.68 -8 1 C-4.93251126 -0.86240388 -3.40254489 -1.2151946 0 0 Z " fill="#EFA836" transform="translate(262,228)"/>
<path d="M0 0 C2.31 0.66 4.62 1.32 7 2 C7.33 3.32 7.66 4.64 8 6 C4.63408134 4.55746343 2.48952921 2.66735273 0 0 Z " fill="#E3AA46" transform="translate(234,373)"/>
<path d="M0 0 C2.31 0.33 4.62 0.66 7 1 C4.08235 2.9451 2.37462715 3.45276317 -1 4 C-0.67 2.68 -0.34 1.36 0 0 Z " fill="#DF272A" transform="translate(374,198)"/>
<path d="M0 0 C-1.24976756 3.65316671 -1.67098753 4.78065836 -5 7 C-5.33 6.01 -5.66 5.02 -6 4 C-2.25 0 -2.25 0 0 0 Z " fill="#43D9F3" transform="translate(349,110)"/>
<path d="M0 0 C0 2.62113708 -0.31292445 4.50935112 -1 7 C-2.65 7 -4.3 7 -6 7 C-4.02 4.69 -2.04 2.38 0 0 Z " fill="#166196" transform="translate(294,374)"/>
<path d="M0 0 C1.32 0 2.64 0 4 0 C4.66 1.98 5.32 3.96 6 6 C3.37812506 4.95125002 2.20628639 4.35068687 0.75 1.875 C0.5025 1.25625 0.255 0.6375 0 0 Z " fill="#EBA542" transform="translate(207,348)"/>
<path d="M0 0 C0 0.99 0 1.98 0 3 C-1.65 3.66 -3.3 4.32 -5 5 C-5 3.68 -5 2.36 -5 1 C-3 0 -3 0 0 0 Z " fill="#CB3539" transform="translate(386,194)"/>
<path d="M0 0 C0.66 0.33 1.32 0.66 2 1 C1.1875 2.9375 1.1875 2.9375 0 5 C-0.99 5.33 -1.98 5.66 -3 6 C-2.42655063 3.13275314 -2.1385485 2.1385485 0 0 Z " fill="#1193CF" transform="translate(358,98)"/>
</svg>
