<svg xmlns="http://www.w3.org/2000/svg" width="500" height="500"><path fill="#0267B0" d="m315 94 2 1c1.42.09 2.844.118 4.266.114h2.67l2.884-.016 2.951-.005c3.118-.005 6.236-.018 9.354-.03q3.165-.009 6.332-.014Q353.228 95.032 361 95c0 4.645-2.219 7.152-5.305 10.5l-2.57 2.5-2.555 2.5L348 113a879 879 0 0 0-6.95 6.984c-.573.583-1.146 1.166-1.738 1.766l-1.761 1.797c-3.464 3.245-7.527 2.795-12.026 3.008l-2.582.128c-8.784.404-17.556.451-26.348.43l-5.24.001q-7.011-.001-14.023-.013c-4.91-.006-9.82-.006-14.73-.008q-13.901-.005-27.803-.021-15.846-.015-31.691-.022-32.554-.016-65.108-.05.056 19.106.184 38.211.061 8.876.087 17.751c.015 5.732.05 11.464.097 17.196q.023 3.247.024 6.494C138.437 263.66 159.806 318.915 197 362l2.027 2.363C209.968 376.812 221.633 388.196 235 398l1.923 1.42q2.873 2.114 5.764 4.205l1.784 1.292c2.505 1.782 4.592 3.104 7.529 4.083a86 86 0 0 0 7-4.875l2.034-1.533c27.268-20.678 50.76-44.85 67.966-74.592l1.2-2.059c16.06-27.722 26.164-57.374 31.905-88.843l.473-2.474c.47-2.684.47-2.684.645-5.664.735-7.763.735-7.763 3.649-11.11 2.455-1.923 4.955-3.558 7.628-5.162l2.61-1.682a368 368 0 0 1 5.23-3.31c3.65-2.327 7.146-4.854 10.646-7.4C395 199 395 199 397 199c1.039 32.282-5.233 64.637-16 95l-.88 2.557C372.747 317.823 362.704 338.399 350 357l-1.22 1.792A380 380 0 0 1 340 371l-1.284 1.725c-7.272 9.7-15.302 18.557-23.716 27.275l-2.727 2.852c-4.884 5.008-9.997 9.54-15.472 13.894a154 154 0 0 0-5.32 4.477c-9.638 8.451-20.413 15.246-31.128 22.24Q257.67 445.219 255 447c-4.419.886-6.946-.347-10.617-2.64a372 372 0 0 1-5.258-3.61l-2.81-1.923c-22.662-15.618-46.344-33.368-63.627-55.014-2.318-2.89-4.638-5.756-7.063-8.555C150.35 357.584 139.009 337.006 129 316l-1.516-3.168c-7.626-16.866-13.146-34.737-16.921-52.832l-.711-3.389c-3.797-19.328-4.136-38.451-4.055-58.08.012-3.263.012-6.526.014-9.788.01-9.477.038-18.954.064-28.43L106 96h209z"/><path fill="#F9A51B" d="m176.188 150.873 1.98-.005c2.206-.004 4.411 0 6.617.003l4.725-.006q6.434-.005 12.867 0c4.479.003 8.957 0 13.436 0q11.284-.003 22.567.005 13.065.006 26.129-.002 11.196-.007 22.392-.003 6.696.003 13.392-.001 6.294-.004 12.588.005 2.316 0 4.633-.002 3.15-.002 6.298.006l3.569.001C330 151 330 151 331 152c.095 2.434.126 4.84.114 7.274v2.306c0 2.526-.009 5.053-.016 7.58l-.005 5.242a8821 8821 0 0 1-.024 13.825q-.014 7.048-.02 14.095-.016 13.839-.049 27.678l-6.652 3.339-1.882.946c-5.283 2.647-10.628 5.129-16.028 7.527l-2.573 1.155c-3.926 1.756-7.852 3.482-11.865 5.033q3.342 1.068 6.688 2.125l2.117.676a260 260 0 0 0 12.863 3.691l2.87.761q2.808.74 5.629 1.427c6.415 1.71 6.415 1.71 8.411 4.62 4.013 25.676-8.335 49.884-22.984 70.032-5.701 7.685-11.976 14.767-18.594 21.668l-1.527 1.61c-7.415 7.782-15.19 14.707-23.805 21.137a284 284 0 0 0-4.855 3.75l-2.938 2.253-2.57 1.984C251 385 251 385 249.063 384.973c-2.97-1.4-5.351-3.263-7.938-5.286l-1.697-1.324c-5.585-4.402-10.97-9.033-16.334-13.699-2.642-2.295-5.358-4.483-8.094-6.664a139 139 0 0 1-5-5l-1.895-1.98c-18.562-19.968-39.22-48.016-39.232-76.474l-.009-3.28.007-3.568-.006-3.78q-.004-5.12 0-10.239c.003-3.57 0-7.142 0-10.713q-.003-8.988.005-17.976.006-10.402-.002-20.806-.007-8.929-.003-17.857.003-5.334-.001-10.669-.004-5.937.007-11.874l-.007-3.592.009-3.246.001-2.838c.266-4.45 3.569-3.234 7.314-3.235M200 180l-.687 46.5-.241 14.588c-.057 4.381-.057 4.381-.11 8.762q-.038 2.888-.093 5.776c-.537 28.987 6.82 52.04 27.01 73.358 2.19 2.272 4.4 4.523 6.621 6.766l2.158 2.187c4.498 4.47 9.158 8.41 14.342 12.063 21.38-10.316 39.812-35.244 48.16-57.027 1.232-3.9 1.84-6.842 1.84-10.973q-9.289-2.966-18.58-5.927l-6.32-2.016q-4.541-1.45-9.084-2.897l-2.854-.912c-.88-.28-1.762-.56-2.669-.85l-2.342-.746c-2.031-.616-4.091-1.137-6.151-1.652l1-36c17.179-8.017 17.179-8.017 23.43-10.71l4.215-1.833q3.214-1.393 6.432-2.785a4875 4875 0 0 0 6.353-2.758l1.963-.846c3.023-1.185 3.023-1.185 5.607-3.068v-29z"/><path fill="#EB2124" d="M397 96c.325 11.952.573 23.903.725 35.859.073 5.552.172 11.102.331 16.653.153 5.362.236 10.722.272 16.086q.039 3.062.152 6.121c.554 15.527.554 15.527-2.818 20.092-3.23 3.108-6.863 5.27-10.856 7.261-2.87 1.474-5.494 3.27-8.181 5.053-1.54.962-3.08 1.923-4.625 2.875-1-1-1-1-1.12-3.816l.006-3.815v-2.099c0-2.3.009-4.6.016-6.899l.005-4.771q.006-6.291.024-12.582.014-6.414.02-12.829.016-12.595.049-25.189l-3.316 1.363-1.866.767c-2.599 1.244-4.664 2.977-6.818 4.87-3.962-1.547-5.982-4.046-8.625-7.312l-2.352-2.864c-1.866-2.605-2.905-4.851-4.023-7.824a320 320 0 0 1 10.107-11.536 128 128 0 0 0 3.396-3.928C368.735 94.05 380.209 94.324 397 96"/><path fill="#E7AB44" d="m176.188 150.873 1.98-.005c2.206-.004 4.411 0 6.617.003l4.725-.006q6.434-.005 12.867 0c4.479.003 8.957 0 13.436 0q11.284-.003 22.567.005 13.065.006 26.129-.002 11.196-.007 22.392-.003 6.696.003 13.392-.001 6.294-.004 12.588.005 2.316 0 4.633-.002 3.15-.002 6.298.006l3.569.001C330 151 330 151 331 152c.095 2.403.126 4.778.114 7.182v2.276c0 2.495-.009 4.989-.016 7.483l-.005 5.175a8595 8595 0 0 1-.024 13.647q-.014 6.957-.02 13.915-.016 13.661-.049 27.322h-1l-1-75c-2.766-1.383-4.99-1.123-8.087-1.12l-3.935-.004-4.342.01h-4.552q-6.192.001-12.384.013-6.466.007-12.932.008-12.25.005-24.501.021-13.944.015-27.888.022-28.69.016-57.379.05c-1.257 2.514-1.129 4.231-1.134 7.046l-.013 3.237.002 3.567-.01 3.745q-.012 5.095-.012 10.191l-.006 6.372q-.013 11.12-.012 22.24-.001 10.353-.026 20.706-.019 8.895-.018 17.788.002 5.31-.013 10.618c-.012 3.955-.007 7.909 0 11.864-.007 1.165-.012 2.33-.018 3.53.018 4.719.087 9.066 1.338 13.635.898 3.37.904 4.319-.078 7.461-5.254-13.725-4.543-27.857-4.439-42.335.022-3.544.021-7.088.023-10.633q.011-8.898.06-17.796c.04-7.621.057-15.242.067-22.864q.014-9.847.045-19.696l.01-4.222q.019-6.915.057-13.829l.008-3.544.022-3.202.013-2.799c.285-4.42 3.605-3.206 7.322-3.207"/><path fill="#0E629E" d="M106 96h209v1l-206 1v78c-.58 34.676-.58 34.676-1 50h-2z"/><path fill="#E3A745" d="M199 181h1l-.02 3.46q-.091 16.24-.135 32.48a4983 4983 0 0 1-.071 16.692q-.048 8.073-.059 16.145a1152 1152 0 0 1-.032 6.123c-.093 12.115.578 23.273 3.317 35.1q.51 2.499 1 5c-2.652-1.326-3.236-3.086-4.34-5.75-1.06-3.61-1.235-7.249-1.45-10.992.035-2.225.035-2.225-1.21-3.258-.089-3.047-.113-6.07-.09-9.117l.012-2.847c.059-10.723.275-21.442.516-32.161l.066-3.081c.347-15.938.798-31.867 1.496-47.794"/><path fill="#13639B" d="M391 251c1.134 3.402.84 4.598.031 8.023l-.72 3.063-.811 3.289-.828 3.39C384.508 285.389 378.779 301.28 372 317h-1l-1-11 3-1 2 1-.125-2.812C375 300 375 300 377 297v-3.062c0-2.938 0-2.938 2-4.938.707-1.65 1.366-3.32 2-5l1.492-3.117c1.805-4.191 2.274-8.308 2.695-12.82l.249-2.362c.198-1.9.382-3.8.564-5.701h2z"/><path fill="#E6AA46" d="M291 245h6c-2 2-2 2-5 3q3.342 1.068 6.688 2.125l2.117.676a260 260 0 0 0 12.863 3.691l2.87.761q2.808.74 5.629 1.427c6.41 1.709 6.41 1.709 8.415 4.605 1.634 10.612.044 20.429-2.582 30.715h-1a758 758 0 0 1-.062-4.937l-.036-2.778C327 282 327 282 328 281c.157-1.486.25-2.98.316-4.473l.127-2.724.12-2.865.13-2.877q.16-3.53.307-7.061l-8 1-1-2-2.875-.437C314 259 314 259 312.61 257.551c-2.07-1.995-3.706-2.313-6.497-2.939l-2.842-.654-2.959-.647-2.994-.681A954 954 0 0 0 290 251v-2l-2-1 3-1z"/><path fill="#ECAB32" d="M271 222v2c-3.164 2.17-6.412 3.667-10 5l3 1c-.687 1.938-.687 1.938-2 4-2.625.75-2.625.75-5 1l-1 3h-2l1-6h-3l.473 1.816c2.363 11.002 1.244 22.038.527 33.184h-2q-.185-7.607-.275-15.216-.037-2.589-.102-5.177c-.06-2.48-.09-4.958-.111-7.439l-.078-2.34c-.002-2.183-.002-2.183.566-5.828 2.327-1.91 2.327-1.91 5-3l3.262-1.605 3.425-1.583 3.45-1.605C269 222 269 222 271 222"/><path fill="#CD2A2E" d="M372 136h1v66l7-2c-2.366 2.615-4.942 4.264-8 6-1.78-1.78-1.128-4.394-1.13-6.802l-.009-3.763.006-4.103q0-2.095-.003-4.19-.002-4.403.006-8.804.006-5.628-.004-11.254a4030 4030 0 0 1 0-8.666q0-2.073-.002-4.147c-.003-1.94.002-3.882.007-5.823l.002-3.341c.127-3.113.548-6.05 1.127-9.107"/><path fill="#BC383B" d="M395 151h2c.349 5.228.601 10.45.769 15.686q.105 2.664.287 5.324c.96 14.33.96 14.33-2.443 18.82-3.687 3.487-9.366 8.17-14.613 8.17v-4l3.375-.25L388 194c1.167-1.917 1.167-1.917 2-4l5-2z"/><path fill="#20618E" d="M397 199c.542 16.843-1.059 33.408-4 50h-1c.43-9.878 1.105-19.574 2.523-29.363.768-5.86 1.132-11.738 1.477-17.637l-1.332 1.457c-2.122 1.963-3.85 2.162-6.668 2.543l-1 3h-2l-1 3h-6c3.2-3.436 6.769-6.108 10.625-8.75l1.773-1.246C394.75 199 394.75 199 397 199"/><path fill="#E6AB42" d="M280 321c0 6.237-7.06 11.098-11.28 15.344-2.23 2.228-4.475 4.443-6.72 6.656l-1.703 1.824C259 346 259 346 257 346v2l-4 1v2c-3.735.575-7.213 1-11 1l-2-4 2-1-2-4c3.151 1.838 6.12 3.76 9 6 8.53-3.842 15.452-11.274 22-17.812l1.672-1.67c2.668-2.706 5.147-5.39 7.328-8.518"/><path fill="#D8AB5B" d="M315 151q3.719-.04 7.438-.062l2.142-.026c1.807-.009 3.614.036 5.42.088 1.685 1.685 1.12 3.763 1.124 6.01l-.01 2.172v2.276c0 2.495-.009 4.989-.016 7.483l-.005 5.175q-.006 6.824-.024 13.647-.014 6.957-.02 13.915-.016 13.661-.049 27.322h-1l-1-75c-2.702-1.35-5.118-1.339-8.125-1.562l-3.32-.254L315 152z"/><path fill="#165F90" d="m230 395 21 14 9-6 2 1-1.875 2.25c-1.743 2.255-2.918 4.207-4.125 6.75a320 320 0 0 1-4.312-1.312l-2.426-.739c-2.405-1.01-3.463-2.112-5.262-3.949-2.03-.986-2.03-.986-4.187-1.687l-2.168-.762L236 404v-2l-3-1v-2h-2z"/><path fill="#176499" d="M138 333c6.182 2.172 6.182 2.172 8 5-.312 3.188-.312 3.188-1 6h3l.375 1.938L149 348l2 1c.852 2.066.852 2.066 1.625 4.563.39 1.239.39 1.239.79 2.503L154 358l3-1 .875 2.25A82 82 0 0 0 161 366h-3c-1.315-1.43-1.315-1.43-2.637-3.445l-1.489-2.247-1.561-2.433-1.605-2.455C138 335.798 138 335.798 138 333"/><path fill="#1265A1" d="M364 224h1v15h-2c.564 3.27 1.5 4.826 4 7-1.207 1.02-1.207 1.02-2.437 2.063-3 3.437-3.22 5.475-3.563 9.937l-1 1-.375 3.188c-.627 3.823-1.742 6.456-3.625 9.812-1.47-3.879-.478-6.55.688-10.437 1.845-6.444 3.259-12.915 4.5-19.5l.504-2.653A224 224 0 0 0 364 224"/><path fill="#EBA92F" d="M192 330c3.794 1.49 5.683 3.69 8 7v2l5-1-.625 2.375L204 343c2.465 2.465 4.715 2.952 8 4 1 1 1 1 1.063 4.063L213 354c-7.26-3.19-11.699-10.82-16.437-16.937-.45-.58-.9-1.16-1.362-1.758C192 331.124 192 331.124 192 330"/><path fill="#186394" d="m317 395 2 1c-15.149 15.34-15.149 15.34-22 21-3-3.625-3-3.625-3-7l6 2 .25-1.875c.75-2.125.75-2.125 2.688-3.312L305 406l2-1v-2l2.938-1.937c3.305-1.774 3.305-1.774 4.062-5.063z"/><path fill="#EEA936" d="M204 296c2.315 2.315 3.193 4.403 4.563 7.375 3.369 6.906 7.662 12.64 12.437 18.625l-1 2-2.312-1.875c-2.684-2.181-2.684-2.181-5.688-4.125-1.187-2.125-1.187-2.125-2-4h-1l-.812-3.125c-.73-2.605-1.542-4.556-2.813-7-1.41-2.947-1.658-4.663-1.375-7.875"/><path fill="#5DCBF5" d="m358 98 2 1c-1.558 3.769-3.91 6.113-6.812 8.938l-2.583 2.527L348 113a2260 2260 0 0 0-5 5l-7 7-2-1 1.285-1.25a192 192 0 0 0 10.738-11.484c3.917-4.49 7.959-8.868 11.977-13.266"/><path fill="#13619B" d="M175 334c3.303 3.08 5.74 6.378 8.25 10.125 3.972 5.862 8.23 11.42 12.75 16.875l-4 1-.312-1.875c-.563-2.49-.563-2.49-3.688-4.125-1.775-2.663-2.986-4.957-4-8l-1.89-.418C180 347 180 347 178.515 345.074l-1.266-2.387-1.297-2.363C175 338 175 338 175 334"/><path fill="#A03D38" d="M371 142h1v61l3 1-3 2c-1-1-1-1-1.12-3.512l.006-3.385v-3.822l.016-4.16.005-4.233q.006-5.58.024-11.161.014-5.691.02-11.381.016-11.173.049-22.346"/><path fill="#146398" d="M165 373c3.376 2.76 6.5 5.357 9.188 8.813 2.03 2.45 2.812 2.606 5.812 3.187 1.75 1.313 1.75 1.313 3 3v4c1.917 2.25 1.917 2.25 4 4l-1 2a174 174 0 0 1-16.055-17.617c-1.833-2.342-1.833-2.342-3.703-4.078C165 375 165 375 165 373"/><path fill="#0D64A3" d="M294 374c1.136 3.717.667 5.47-1 9h-4l-2 6h-6c1.61-4.074 4.538-6.765 7.625-9.75l1.563-1.535A897 897 0 0 1 294 374"/><path fill="#ECAB3D" d="M300 181h1v8h3l-.494 1.716c-.523 2.36-.62 4.417-.604 6.83l.01 2.56.026 2.644.013 2.691q.018 3.28.049 6.559l-6-1 2-2c.373-2.912.373-2.912.414-6.32l.117-3.809.094-3.996.117-4.02q.142-4.928.258-9.855"/><path fill="#10629D" d="M139 236h1c.868 4.247 1.717 8.498 2.563 12.75l.748 3.656.693 3.516c.215 1.068.43 2.136.65 3.237.327 2.683.222 4.316-.654 6.841-1.931-5.356-3.294-10.355-4-16l-1-1-2 3c-1-1-1-1-1.062-3.562L136 246h2z"/><path fill="#176293" d="m316 348 1 2a136 136 0 0 1-3 7h-3v2h-2l-1 6h-4l-.687 1.688c-1.672 2.944-3.866 4.994-6.313 7.312l-2-1 2.309-2.422c6.78-7.187 12.95-14.532 18.691-22.578"/><path fill="#E6A94C" d="M265 271c11.975 1.151 22.244 4.64 33 10-2.704 1.352-4.19.48-6.953-.411l-2.024-.679-2.076-.677c-2.193-.716-4.382-1.443-6.572-2.17q-2.226-.731-4.453-1.46A2970 2970 0 0 1 265 272z"/><path fill="#F1A831" d="M215 357h4v2h3v-2h3l-1 7 1.75.188c3.133 1.13 4.285 3.191 6.25 5.812l2 1-1 2c-13.307-10.829-13.307-10.829-18-15z"/><path fill="#E1A943" d="m320 308 1 2a93 93 0 0 1-3.625 6.813l-1.043 1.869c-2.34 4.062-4.883 7.142-8.332 10.318-.125-5.75-.125-5.75 1-8l3-1a125 125 0 0 0 2-5l2-1 1-3h2z"/><path fill="#13629A" d="M145 266c2.337 3.505 3.452 7.081 4.688 11.063l.72 2.22c1.714 5.473 1.714 5.473.592 7.717l-3-2-1 2-1-3 2-3-2-2-2-2c.023-2.602.023-2.602.375-5.625l.336-3.04zM329 328c.625 1.813.625 1.813 1 4l-2 3v5l-2 2h-4l-.937 1.875L319 348l-2-1 .994-1.529q2.223-3.422 4.443-6.846l1.565-2.406 1.494-2.305 1.38-2.126c1.165-1.789 1.165-1.789 2.124-3.788"/><path fill="#0F669D" d="M119 288h4l.375 2.938L124 294l2 1-3 3 3-1v10c-2.072-3.108-3.284-6.019-4.625-9.5l-1.352-3.469C119 291 119 291 119 288"/><path fill="#D72428" d="M351 131h4l1 7 3-1c.733-2.015.733-2.015 1-4h2v2h2c-1.098 2.993-1.677 3.846-4.625 5.25L357 141l-7-8z"/><path fill="#E7AD3F" d="M294 298h1c.615 5.076-1.383 7.83-4 12h-2l-.312 2.25c-.737 2.947-1.636 4.534-3.688 6.75h-2v2l-2-1 2.082-3.29 2.73-4.335 1.37-2.16c2.502-3.982 4.798-7.96 6.818-12.215"/><path fill="#196397" d="m112 263 3 2c.688 3.625.688 3.625 1 7h2l-.062 3.5c-.008 4.244.462 8.302 1.062 12.5-1.802-2.703-2.491-4.292-3.29-7.344l-.663-2.527-.672-2.629-.695-2.629C112 266.402 112 266.402 112 263"/><path fill="#E2AA49" d="M296 343c0 3 0 3-1.56 4.901l-2.159 2.11-2.324 2.296-2.457 2.38-2.457 2.417A1282 1282 0 0 1 279 363v-3l4-4c.787-2.138.787-2.138 1-4h3l1-3a132 132 0 0 1 5-3c1.751-1.582 1.751-1.582 3-3"/><path fill="#E8AE45" d="M321 235c-3.62 1.7-7.246 3.383-10.875 5.063l-3.129 1.47-2.988 1.377-2.761 1.286L299 245l-2-1c6.625-4 6.625-4 10-4v-2l2-1 1-2c4.027-.836 7.066-1.155 11 0"/><path fill="#156196" d="m391 202 3 1-1 2c-2.562.625-2.562.625-5 1l-1 3h-2l-1 3h-6c3.613-4.084 8.135-7.536 13-10"/><path fill="#0F629C" d="m260 403 2 1-1.875 2.25c-2.322 2.822-2.322 2.822-4.125 6.75l-9-3 4-1a86 86 0 0 0 4.75-3.062l2.422-1.66z"/><path fill="#146398" d="M349 352h3c-1.442 4.152-3.501 7.3-6.125 10.813l-2.195 2.957L342 368l-1-3h2v-3h2l-.25-2.187c.33-3.706 1.653-5.216 4.25-7.813"/><path fill="#0864A9" d="M394 202h2v14c-2-2-2-2-2.437-4.5-.34-2.85-.34-2.85-3.563-4.5v-2h3z"/><path fill="#E7AC42" d="M271 222v2a36.2 36.2 0 0 1-7.562 4c-2.508 1.029-4.345 2.295-6.438 4v-2l-3 1v-2q3.685-1.756 7.375-3.5l2.117-1.012C268.773 222 268.773 222 271 222"/><path fill="#F2A837" d="M231 334q1.693 1.4 3.375 2.813l1.898 1.582C238 340 238 340 240 343l-9 1v-3l3-2-1.5-1.375C231 336 231 336 231 334"/><path fill="#F0A633" d="M314 257c5.419-.226 9.775.533 15 2-2.918 1.945-4.625 2.453-8 3l-1-2c-3.03-.658-3.03-.658-6-1z"/><path fill="#33B9DF" d="m358 98 2 1c-1.477 3.452-3.438 5.65-6.125 8.25l-2.195 2.14L350 111l-2-2z"/><path fill="#E9AB46" d="M292 213v2l-3.027 1.277-3.91 1.66-1.999.842c-3.269 1.229-3.269 1.229-6.064 3.221-1.666.04-3.334.043-5 0 3.383-2.83 7.091-4.503 11.125-6.187l1.918-.827C289.733 213 289.733 213 292 213"/><path fill="#E8AC40" d="m180 310 3 2v2h2c2.616 3.558 3.494 6.645 4 11-4.18-3.56-6.686-8.087-9-13z"/><path fill="#146297" d="M161 309a66.4 66.4 0 0 1 5.688 8.625l1.324 2.352C169 322 169 322 169 324h-2c-1.402-2.013-2.568-4.12-3.781-6.25L162 316h-2z"/><path fill="#BC3A40" d="m390 190 4 1q-2.681 2.008-5.375 4l-3.023 2.25C383 199 383 199 381 199v-4l3.375-.25c3.683-.329 3.683-.329 5.063-2.812.185-.64.37-1.28.562-1.938"/><path fill="#1A6290" d="M183 346c4.87 4.566 8.892 9.75 13 15l-4 1-.312-1.875c-.563-2.49-.563-2.49-3.688-4.125-2.15-3.182-3.665-6.405-5-10"/><path fill="#E8AC43" d="M204 296c2.424 2.424 3.587 4.874 5.125 7.938l1.633 3.214C212 310 212 310 212 313c-4.944-5.577-7.862-9.429-8-17"/><path fill="#F13238" d="M372 129v13h-1v-8l-7 2-2-2 2.25-.812c2.266-.98 5.43-4.188 7.75-4.188"/><path fill="#166291" d="M243 442h4v2h11c-3 3-3 3-5.812 3.438-3.934-.54-6.093-2.006-9.188-4.438z"/><path fill="#EBA83F" d="M326 292c.93 2.551 1.086 3.74.223 6.36l-1.16 2.39-1.153 2.422L323 305c-2-3-2-3-1.312-6.5 1.157-3.087 1.771-4.536 4.312-6.5"/><path fill="#196395" d="m220 426 8 2v2l3 1v3c-4.003-1.761-7.603-4.261-11-7z"/><path fill="#ECA933" d="m257 374 1 2 4 1-7 5-2-2 2-1-1-3z"/><path fill="#17639A" d="M196 406c2.954 1.372 5.44 2.989 8 5v-2h2l1 3-2 3a975 975 0 0 1-3.937-3.375l-2.215-1.898C197 408 197 408 196 406"/><path fill="#0B65A7" d="M391 244h1c.193 4.824-.243 8.496-2 13l-4-2 2-5h3z"/><path fill="#DFAA43" d="m306 330 2 1a1645 1645 0 0 1-4.375 5.438l-2.46 3.058C299 342 299 342 297 343l4-8h2v-3z"/><path fill="#156394" d="M369 317h2c-1.31 4.234-2.944 8.074-5 12-2-3.75-2-3.75-2-6 1.375-1.625 1.375-1.625 3-3h2z"/><path fill="#1B5F8E" d="M359 253h1c-.595 13.818-.595 13.818-4 19-1.676-4.09-.24-7.715.938-11.75l.591-2.113A644 644 0 0 1 359 253"/><path fill="#0E639E" d="m300 409 1 4-5 4c-1.46-2.647-2-3.894-2-7l6 2z"/><path fill="#166295" d="m326 384 3 1-9 10c0-3 0-3 2-5l1-2.562c1-2.438 1-2.438 3-3.438"/><path fill="#E0AA4D" d="M221 362c5.713 1.329 7.57 3.523 11 8l2 1-1 2a1645 1645 0 0 1-5.437-4.375l-3.06-2.46C222 364 222 364 221 362"/><path fill="#E4AA44" d="M299 282h1c.543 6.655-.227 10.458-4 16-1.572-3.143-.04-5.93.938-9.125l.591-1.996A785 785 0 0 1 299 282"/><path fill="#15639C" d="M340 308c.934 3.01 1.044 3.867 0 7l3 1-7 2c1.11-3.487 2.263-6.775 4-10"/><path fill="#1A6392" d="M141 248h1c.532 2.247 1.05 4.498 1.563 6.75l.878 3.797c.493 3.048.636 4.63-.441 7.453-2.48-6.243-3.32-11.283-3-18"/><path fill="#F3AB32" d="M252 230c1.342 2.685 1.013 5.09.965 8.031.038 2.114.488 3.935 1.035 5.969l-1 2h-2q-.04-3.72-.062-7.437l-.026-2.143c-.009-1.807.036-3.614.088-5.42z"/><path fill="#17618E" d="M220 387c3.984 2.163 6.89 4.712 10 8-3.856-1.14-7.065-2.178-10-5z"/><path fill="#E6AA45" d="m268 368 4 1-9 7-1-2h2v-3l3-1z"/><path fill="#1C6497" d="M200 367q1.693 1.4 3.375 2.813l1.898 1.582C207 373 207 373 209 376h-5l-.312-1.812c-.782-2.487-1.837-3.417-3.688-5.188z"/><path fill="#ECA93F" d="M253 347c2.125.375 2.125.375 4 1l-4 1v2l-7 1v-4l2.375.625L251 349z"/><path fill="#146191" d="m364 329 1 2c-1.215 2.602-1.215 2.602-2.937 5.625-.85 1.504-.85 1.504-1.715 3.04L359 342l-1-2c.707-2.094.707-2.094 1.813-4.5l1.082-2.406C362 331 362 331 364 329"/><path fill="#DFA94A" d="M192 330c3.787 1.488 5.774 3.62 8 7l-1 3q-1.755-2.216-3.5-4.437l-1.969-2.497C192 331 192 331 192 330"/><path fill="#F5AA24" d="m280 219 2 1c-2 3-2 3-4.164 3.512l-2.461.175c-1.226.1-1.226.1-2.477.2L271 224l1-3 2.313.125c2.914.096 2.914.096 5.687-2.125m-11 5 2 1Z"/><path fill="#11649E" d="M282 423c3 0 3 0 6 1l-6 5-2-1z"/><path fill="#1D6290" d="M279 388v3a131 131 0 0 1-5 4l-2 3h-2c1.382-3.21 2.924-5.05 5.625-7.25l1.914-1.578z"/><path fill="#1065A2" d="M288 417h7a105 105 0 0 1-4 5h-2z"/><path fill="#F3A727" d="M301 242c-2.36 2.097-3.546 2.97-6.75 3.188L292 245l1-3c5.75-1.125 5.75-1.125 8 0"/><path fill="#DA2126" d="m372 98-1 5-1-2-1 2-4-1c3.625-4 3.625-4 7-4"/><path fill="#115E97" d="m156 357 .813 1.813c1.076 2.23 1.076 2.23 2.812 3.812L161 364v2h-3a136 136 0 0 1-3-7z"/><path fill="#EFA635" d="M309 321h2c.188 2.875.188 2.875 0 6l-3 2c-.125-5.75-.125-5.75 1-8"/><path fill="#155F98" d="M155 295c1.991 2.986 2.941 5.597 4 9-3.875-1.75-3.875-1.75-5-4a76 76 0 0 1 1-5"/><path fill="#EFA836" d="m262 228-5 4v-2l-3 1v-2c3.067-1.862 4.597-2.215 8-1"/><path fill="#E3AA46" d="m234 373 7 2 1 4c-3.366-1.443-5.51-3.333-8-6"/><path fill="#DF272A" d="m374 198 7 1c-2.918 1.945-4.625 2.453-8 3z"/><path fill="#43D9F3" d="M349 110c-1.25 3.653-1.671 4.78-5 7l-1-3c3.75-4 3.75-4 6-4"/><path fill="#166196" d="M294 374c0 2.621-.313 4.51-1 7h-5z"/><path fill="#EBA542" d="M207 348h4l2 6c-2.622-1.049-3.794-1.65-5.25-4.125z"/><path fill="#CB3539" d="M386 194v3l-5 2v-4c2-1 2-1 5-1"/><path fill="#1193CF" d="m358 98 2 1c-.812 1.938-.812 1.938-2 4l-3 1c.573-2.867.861-3.861 3-6"/></svg>